<svg id="Ebene_1" xmlns="http://www.w3.org/2000/svg" viewBox="0 0 566.9 566.9"><style>.st0{fill:url(#SVGID_1_);} .st1{fill:#FFFFFF;}</style><radialGradient id="SVGID_1_" cx="183.749" cy="381.041" r="282.484" gradientTransform="matrix(1 0 0 -1 0 566)" gradientUnits="userSpaceOnUse"><stop offset="0" stop-color="#9DD5F6"/><stop offset=".071" stop-color="#98D3F5"/><stop offset=".158" stop-color="#89CEF3"/><stop offset=".252" stop-color="#70C6EF"/><stop offset=".351" stop-color="#4EBBEA"/><stop offset=".455" stop-color="#23ADE3"/><stop offset=".5" stop-color="#0DA6E0"/><stop offset="1" stop-color="#2E77BC"/></radialGradient><path class="st0" d="M431.7 132.2h-301v302.1h301v-99.7c1.2-1.7 1.8-3.9 1.8-6.6 0-3.1-.6-5-1.8-6.6V132.2z"/><path class="st1" d="M157.8 262.9l-5.8-14.1-5.8 14.1m139.1-5.6c-1.2.7-2.5.7-4.2.7h-10.3v-7.9h10.4c1.5 0 3 .1 4 .6 1.1.5 1.8 1.6 1.8 3.1.1 1.7-.6 2.9-1.7 3.5zm73.4 5.6l-5.9-14.1-5.8 14.1h11.7zM222 278.2h-8.7v-27.7L201 278.2h-7.4l-12.3-27.7v27.7h-17.2l-3.3-7.9h-17.6l-3.3 7.9h-9.2l15.2-35.4h12.6l14.4 33.5v-33.5h13.8l11.1 24 10.2-24h14v35.4zm34.6 0h-28.3v-35.4h28.3v7.4h-19.8v6.4h19.3v7.3h-19.3v7.1h19.8v7.2zm39.8-25.9c0 5.6-3.8 8.6-6 9.4 1.9.7 3.4 1.9 4.2 3 1.2 1.8 1.4 3.3 1.4 6.5v7h-8.5v-4.5c0-2.1.2-5.2-1.3-6.9-1.2-1.2-3.1-1.5-6.2-1.5h-9.1v12.9h-8.5v-35.4h19.5c4.3 0 7.5.1 10.2 1.7 2.7 1.6 4.3 3.9 4.3 7.8zm13.5 25.9h-8.6v-35.4h8.6v35.4zm100.2 0h-12l-16-26.6v26.6h-17.2l-3.3-7.9H344l-3.2 7.9h-9.9c-4.1 0-9.3-.9-12.3-3.9s-4.5-7.1-4.5-13.5c0-5.2.9-10 4.6-13.8 2.7-2.8 7-4.1 12.8-4.1h8.2v7.6h-8c-3.1 0-4.8.5-6.5 2.1-1.4 1.5-2.4 4.3-2.4 8 0 3.8.8 6.5 2.3 8.3 1.3 1.4 3.7 1.8 5.9 1.8h3.8l11.9-27.8h12.7l14.3 33.5v-33.5h12.9l14.9 24.7v-24.7h8.7l-.1 35.3zm-279.5 6.9h14.5l3.3-7.9h7.3l3.3 7.9h28.4v-6l2.5 6h14.8l2.5-6.1v6.1h70.7v-12.9h1.4c1 0 1.2.1 1.2 1.7v11.2H317v-3c2.9 1.6 7.5 3 13.6 3H346l3.3-7.9h7.3l3.2 7.9h29.6v-7.5l4.5 7.5h23.8v-49.4h-23.5v5.8l-3.3-5.8h-24.1v5.8l-3-5.8h-32.6c-5.5 0-10.2.8-14.1 2.9v-2.9h-22.5v2.9c-2.5-2.2-5.8-2.9-9.6-2.9h-82.1l-5.5 12.8-5.7-12.8h-25.9v5.8l-2.8-5.8h-22.1l-10.2 23.5-.1 25.9zM431.7 311.3h-15.4c-1.5 0-2.6.1-3.4.6-.9.6-1.2 1.4-1.2 2.5 0 1.3.8 2.2 1.9 2.6.9.3 1.9.4 3.3.4l4.6.1c4.6.1 7.7.9 9.6 2.8.3.3.5.6.8.9m-.2 13.4c-2.1 3-6.1 4.5-11.5 4.5h-16.3v-7.6h16.3c1.6 0 2.7-.2 3.4-.9.6-.5 1-1.3 1-2.3 0-1-.4-1.9-1-2.3-.6-.5-1.5-.8-3-.8-7.9-.3-17.9.2-17.9-11 0-5.1 3.3-10.5 12.1-10.5h16.9v-7H416c-4.7 0-8.2 1.1-10.6 2.9v-2.9h-23.2c-3.7 0-8.1.9-10.1 2.9v-2.9h-41.4v2.9c-3.3-2.4-8.8-2.9-11.4-2.9H292v2.9c-2.6-2.5-8.4-2.9-11.9-2.9h-30.5l-7 7.6-6.5-7.6h-45.6v49.4h44.8l7.2-7.7 6.8 7.7h27.6v-11.6h2.7c3.7.1 8-.1 11.8-1.7v13.3h22.8v-12.9h1.1c1.4 0 1.5.1 1.5 1.5v11.4h69.1c4.4 0 9-1.1 11.5-3.2v3.2h21.9c4.6 0 9-.6 12.4-2.3v-9.2zm-33.8-14.1c1.6 1.7 2.5 3.9 2.5 7.5 0 7.6-4.8 11.2-13.3 11.2h-16.5v-7.6H387c1.6 0 2.7-.2 3.5-.9.6-.5 1-1.3 1-2.3 0-1-.5-1.9-1-2.3-.6-.5-1.5-.8-3-.8-7.9-.3-17.8.2-17.8-11 0-5.1 3.2-10.5 12.1-10.5h17v7.5h-15.5c-1.5 0-2.5.1-3.4.6-.9.6-1.3 1.4-1.3 2.5 0 1.3.8 2.2 1.9 2.6.9.3 1.9.4 3.3.4l4.6.1c4.4.2 7.6 1 9.5 3zm-76.3-2.2c-1.1.7-2.5.7-4.2.7h-10.3v-8h10.4c1.5 0 3 0 4 .6 1.1.6 1.8 1.7 1.8 3.2 0 1.6-.6 2.8-1.7 3.5zm5.1 4.4c1.9.7 3.4 1.9 4.1 3 1.2 1.7 1.4 3.3 1.4 6.5v7h-8.5v-4.4c0-2.1.2-5.3-1.4-6.9-1.2-1.3-3.1-1.6-6.2-1.6h-9v12.9h-8.5v-35.4h19.5c4.3 0 7.4.2 10.2 1.7 2.7 1.6 4.3 3.8 4.3 7.9.1 5.5-3.7 8.4-5.9 9.3zm10.7-19h28.2v7.3h-19.8v6.4h19.3v7.2h-19.3v7h19.8v7.3h-28.2v-35.2zm-57.1 16.4h-10.9v-9h11c3.1 0 5.2 1.2 5.2 4.3-.1 3-2.1 4.7-5.3 4.7zm-19.4 15.8l-13-14.4 13-14v28.4zm-33.5-4.1h-20.8v-7h18.6v-7.2h-18.6V311h21.2l9.3 10.3-9.7 10.5zm67.2-16.4c0 9.8-7.3 11.9-14.7 11.9h-10.6v11.9h-16.4l-10.4-11.7-10.8 11.7h-33.5v-35.4h34l10.4 11.6 10.8-11.6h27c6.7-.1 14.2 1.8 14.2 11.6z"/></svg>