<svg id="Ebene_1" xmlns="http://www.w3.org/2000/svg" viewBox="0 0 566.9 566.9"><style>.st0{clip-path:url(#SVGID_2_);} .st1{fill:url(#path10283_1_);} .st2{fill:#FF5F00;} .st3{fill:#EB001B;} .st4{fill:#F79E1B;} .st5{fill:#253B80;} .st6{fill:#179BD7;} .st7{fill:#222D65;} .st8{fill:#10298E;} .st9{fill:#FFBE00;} .st10{fill:#FDD69D;} .st11{fill:#FFFFFF;} .st12{fill:#EC008C;}</style><path id="XMLID_3_" d="M155.2 439.2v-20.8c0-7.8-5-13.1-13-13.2-4.2-.1-8.6 1.2-11.6 5.9-2.3-3.7-5.9-5.9-10.9-5.9-3.5 0-7 1-9.7 4.9V406h-7.2v33.1h7.3v-18.4c0-5.8 3.2-8.8 8.1-8.8 4.8 0 7.2 3.1 7.2 8.7V439h7.3v-18.4c0-5.8 3.3-8.8 8.1-8.8 4.9 0 7.3 3.1 7.3 8.7v18.4h7.1zM262.9 406h-11.8v-10h-7.3v10h-6.7v6.6h6.7v15.1c0 7.7 3 12.3 11.5 12.3 3.1 0 6.7-1 9-2.6l-2.1-6.2c-2.1 1.2-4.5 1.9-6.4 1.9-3.6 0-4.8-2.2-4.8-5.5v-15h11.8V406zm61.4-.8c-4.2 0-6.9 1.9-8.7 4.9v-4h-7.1v33.1h7.2v-18.6c0-5.5 2.4-8.5 7.1-8.5 1.5 0 3 .2 4.5.8l2.2-6.8c-1.6-.6-3.7-.9-5.2-.9zm-92.9 3.5c-3.5-2.3-8.2-3.5-13.5-3.5-8.4 0-13.8 4-13.8 10.6 0 5.4 4 8.7 11.4 9.8l3.4.5c3.9.6 5.8 1.6 5.8 3.5 0 2.6-2.6 4-7.6 4s-8.6-1.6-11-3.5l-3.4 5.6c3.9 2.9 8.9 4.3 14.3 4.3 9.6 0 15.1-4.5 15.1-10.8 0-5.8-4.4-8.9-11.6-9.9l-3.4-.5c-3.1-.4-5.6-1-5.6-3.3 0-2.4 2.4-3.9 6.3-3.9 4.2 0 8.3 1.6 10.3 2.8l3.3-5.7zm193.1-3.5c-4.2 0-6.9 1.9-8.7 4.9v-4h-7.1v33.1h7.2v-18.6c0-5.5 2.4-8.5 7.1-8.5 1.5 0 3 .2 4.5.8l2.2-6.8c-1.7-.6-3.8-.9-5.2-.9zm-92.9 17.4c0 10 7 17.4 17.7 17.4 5 0 8.3-1.1 11.9-4l-3.5-5.8c-2.7 1.9-5.5 3-8.7 3-5.8-.1-10-4.2-10-10.6 0-6.4 4.2-10.5 10-10.6 3.1 0 6 1 8.7 3l3.5-5.8c-3.6-2.8-6.9-3.9-11.9-3.9-10.7-.1-17.7 7.3-17.7 17.3zm67.5 0V406h-7.2v4c-2.3-3-5.8-4.9-10.5-4.9-9.3 0-16.6 7.3-16.6 17.4 0 10.1 7.3 17.4 16.6 17.4 4.7 0 8.2-1.9 10.5-4.9v4h7.2v-16.4zm-26.8 0c0-5.8 3.8-10.6 10-10.6 6 0 10 4.6 10 10.6s-4 10.6-10 10.6c-6.2 0-10-4.8-10-10.6zm-87-17.4c-9.7 0-16.5 7.1-16.5 17.4 0 10.5 7.1 17.4 17 17.4 5 0 9.6-1.2 13.6-4.6l-3.5-5.3c-2.8 2.2-6.3 3.5-9.6 3.5-4.6 0-8.9-2.1-9.9-8.1H301c.1-.9.1-1.8.1-2.8-.1-10.4-6.5-17.5-15.8-17.5zm-.1 6.5c4.6 0 7.6 2.9 8.4 8h-17.2c.8-4.8 3.7-8 8.8-8zM466 422.6v-29.9h-7.2V410c-2.3-3-5.8-4.9-10.5-4.9-9.3 0-16.6 7.3-16.6 17.4 0 10.1 7.3 17.4 16.6 17.4 4.7 0 8.2-1.9 10.5-4.9v4h7.2v-16.4zm-26.8 0c0-5.8 3.8-10.6 10-10.6 6 0 10 4.6 10 10.6s-4 10.6-10 10.6c-6.2 0-10-4.8-10-10.6zm-243.4 0V406h-7.2v4c-2.3-3-5.8-4.9-10.5-4.9-9.3 0-16.6 7.3-16.6 17.4 0 10.1 7.3 17.4 16.6 17.4 4.7 0 8.2-1.9 10.5-4.9v4h7.2v-16.4zm-26.8 0c0-5.8 3.8-10.6 10-10.6 6 0 10 4.6 10 10.6s-4 10.6-10 10.6c-6.2 0-10-4.8-10-10.6z"/><path class="st2" d="M229 153.6h109.2v196.2H229z"/><path id="XMLID_2_" class="st3" d="M236 251.7c0-39.8 18.6-75.2 47.6-98.1-21.2-16.7-48-26.7-77.1-26.7-68.9 0-124.7 55.9-124.7 124.8s55.8 124.8 124.7 124.8c29.1 0 55.9-10 77.1-26.7-29-22.9-47.6-58.3-47.6-98.1z"/><path class="st4" d="M485.4 251.7c0 68.9-55.8 124.8-124.7 124.8-29.1 0-55.9-10-77.1-26.7 29-22.8 47.6-58.3 47.6-98.1s-18.6-75.2-47.6-98.1c21.2-16.7 48-26.7 77.1-26.7 68.9 0 124.7 55.9 124.7 124.8z"/></svg>