<?xml version="1.0" encoding="utf-8"?>
<!-- Generator: Adobe Illustrator 21.1.0, SVG Export Plug-In . SVG Version: 6.00 Build 0)  -->
<svg version="1.1" id="Ebene_1" xmlns="http://www.w3.org/2000/svg" xmlns:xlink="http://www.w3.org/1999/xlink" x="0px" y="0px"
	 viewBox="0 0 566.9 566.9" style="enable-background:new 0 0 566.9 566.9;" xml:space="preserve">
<style type="text/css">
	.st0{fill:#FFFFFF;}
	.st1{fill:#0071BC;}
	.st2{fill:#59A219;}
</style>
<g>
	<g>
		<path class="st0" d="M473.1,197.1c-47.7,0-86.3,38.6-86.3,86.3s38.6,86.3,86.3,86.3c47.7,0,86.3-38.6,86.3-86.3
			S520.7,197.1,473.1,197.1L473.1,197.1z"/>
	</g>
	<g>
		<path class="st1" d="M566.9,283.5c0-51.8-41.9-93.7-93.7-93.8v0H21.4C9.6,189.6,0,199.2,0,211v144.8c0,11.8,9.6,21.4,21.4,21.4
			h451.8v0C525,377.2,566.9,335.2,566.9,283.5z M473.1,363c-21.2,0-41.2-8.3-56.2-23.3c-15-15-23.3-35-23.3-56.2s8.3-41.2,23.3-56.2
			c15-15,35-23.3,56.2-23.3c21.2,0,41.2,8.3,56.2,23.3c15,15,23.3,35,23.3,56.2s-8.3,41.2-23.3,56.2
			C514.3,354.7,494.3,363,473.1,363z"/>
	</g>
	<g>
		<path class="st2" d="M458.2,326.1c-3,0-5.9-1.3-8-3.5l-27.8-30.9c-4-4.4-3.6-11.2,0.8-15.2c4.4-4,11.2-3.6,15.2,0.8l19.9,22
			l49.5-54.9c4-4.4,10.8-4.8,15.2-0.8c4.4,4,4.8,10.8,0.8,15.2l-57.5,63.7C464.2,324.8,461.3,326.1,458.2,326.1z"/>
	</g>
	<g>
		<path class="st0" d="M36.7,254.9L33.9,271H22.8l8.2-47.3l17,0c5.3,0,9.4,1.5,12.4,4.4c3,2.9,4.4,6.7,4,11.4
			c-0.3,3.2-1.3,5.9-3.1,8.3c-1.8,2.3-4.1,4.1-7,5.4c-2.9,1.2-6.2,1.9-9.8,1.9L36.7,254.9z M38.3,246.1l6.7,0.1c2.8-0.1,5-1,6.5-2.8
			s2.1-3.9,1.8-6.5c-0.2-1.3-0.7-2.4-1.5-3.1c-0.8-0.8-1.9-1.2-3.3-1.3l-7.8,0L38.3,246.1z"/>
		<path class="st0" d="M107.4,223.6l-5.3,30.9c-0.8,5.4-3,9.6-6.6,12.6c-3.7,3.1-8.3,4.6-13.8,4.5c-3.4-0.1-6.4-0.8-9-2.2
			c-2.5-1.4-4.4-3.4-5.6-6c-1.2-2.6-1.6-5.5-1.2-8.9l5.3-30.9h11.2l-5.2,31c-0.1,1.1-0.2,2.1-0.1,3.1c0.1,1.6,0.6,2.9,1.5,3.7
			c0.9,0.9,2.2,1.4,3.8,1.4c4.8,0.2,7.6-2.6,8.6-8.3l5.3-30.9H107.4z"/>
		<path class="st0" d="M126.5,254.2h-6.2l-2.9,16.7h-11.1l8.2-47.3l16.7,0c5.4,0,9.5,1.3,12.4,3.8c2.9,2.5,4.2,5.9,3.9,10.2
			c-0.2,3.4-1.2,6.3-3,8.5c-1.7,2.2-4.2,4-7.3,5.3l6.4,18.9v0.6h-11.9L126.5,254.2z M121.8,245.5l6.5,0.1c1.8,0,3.3-0.4,4.6-1.3
			c1.3-0.9,2.2-2.1,2.8-3.6c0.6-1.5,0.7-3,0.5-4.4c-0.4-2.4-2-3.7-4.6-3.8l-7.5,0L121.8,245.5z"/>
		<path class="st0" d="M186.7,254.9c-0.3,3.3-1.4,6.3-3.3,8.8c-1.9,2.6-4.4,4.6-7.5,5.9c-3.1,1.4-6.4,2-10,2
			c-4.9-0.1-8.8-1.7-11.7-4.8s-4.4-7.3-4.6-12.5c-0.2-3.5,0.2-7.3,1.2-11.5c1-4.1,2.5-7.7,4.7-10.8c2.2-3.1,4.7-5.4,7.7-6.9
			c3-1.5,6.2-2.3,9.7-2.2c5.2,0.1,9.2,1.6,12.2,4.6c3,3,4.6,7.2,4.9,12.5l-11.1,0c0-2.9-0.5-4.9-1.6-6.2c-1.1-1.2-2.8-1.9-5.1-2
			c-5.9-0.2-9.4,4.4-10.7,13.7c-0.6,4.2-0.9,7.2-0.9,9c-0.1,5.3,1.9,8.1,5.9,8.2c2.6,0.1,4.7-0.6,6.3-1.9c1.6-1.4,2.6-3.3,3-5.8
			L186.7,254.9z"/>
		<path class="st0" d="M228,271h-11.1l3.4-19.8h-16.2l-3.4,19.8h-11.1l8.2-47.3h11.2l-3.3,18.8h16.3l3.3-18.8h11.1L228,271z"/>
		<path class="st0" d="M262.3,262.1h-15.1L243,271h-12.3l25.1-47.3h10.5L275,271h-11.6L262.3,262.1z M251.3,253.3h9.8l-2.1-16.3
			L251.3,253.3z"/>
		<path class="st0" d="M301.9,258.2c0.5-2.4-0.8-4.3-4-5.7l-5.3-2.2c-7.5-3.4-11-7.9-10.7-13.7c0.2-2.6,1.1-5,2.7-7.1
			c1.7-2.1,4-3.7,6.9-4.8c2.9-1.1,6.2-1.7,9.7-1.7c4.7,0.1,8.4,1.5,11.3,4.1c2.8,2.6,4.3,6.2,4.2,10.6h-11.1
			c0.1-1.8-0.3-3.3-1.2-4.4c-0.8-1.1-2.2-1.7-4.1-1.7c-1.9,0-3.5,0.4-4.9,1.3c-1.4,0.9-2.3,2.1-2.5,3.7c-0.4,2.2,1.2,3.9,4.8,5.3
			c3.6,1.4,6.3,2.6,7.9,3.6c5.2,3.1,7.6,7.3,7.3,12.5c-0.2,2.7-1.1,5.1-2.6,7.2c-1.6,2.1-3.8,3.7-6.6,4.8c-2.8,1.1-6,1.7-9.4,1.6
			c-2.6,0-4.9-0.4-7.1-1.2c-2.2-0.8-4.1-1.9-5.6-3.3c-3.2-2.9-4.7-6.8-4.6-11.5l11.2,0c-0.1,2.4,0.3,4.3,1.4,5.5
			c1.1,1.2,2.8,1.9,5.4,1.9c1.9,0,3.4-0.4,4.7-1.3C300.9,260.9,301.7,259.7,301.9,258.2z"/>
		<path class="st0" d="M348.7,250.9h-17.4l-2,11.3h20.6l-1.5,8.8h-31.7l8.2-47.3h31.8l-1.5,8.8h-20.6l-1.8,10h17.4L348.7,250.9z"/>
		<path class="st0" d="M42.4,343.2c-4.9-0.1-8.9-1.7-11.8-4.9c-3-3.1-4.6-7.3-5-12.6c-0.2-2.6,0-5.7,0.6-9.2
			c0.6-3.5,1.7-6.8,3.3-9.7c1.6-3,3.6-5.4,6-7.4c4-3.3,8.7-4.9,13.9-4.8c3.2,0.1,6.1,0.8,8.5,2.2c2.4,1.4,4.4,3.5,5.8,6.1
			s2.3,5.7,2.5,9.1c0.2,2.4,0,5.1-0.4,8.2c-0.5,3.1-1.3,6-2.6,8.8c-1.2,2.8-2.9,5.2-4.8,7.4c-2,2.1-4.3,3.8-7,5.1
			C48.7,342.7,45.7,343.3,42.4,343.2z M55,312c-0.2-5.4-2.3-8.2-6.3-8.5c-3.1-0.2-5.6,1.1-7.6,3.7c-2,2.6-3.3,6.4-4,11.5
			c-0.4,3.1-0.6,5.5-0.5,7.2c0.2,5.5,2.3,8.3,6.4,8.5c2.6,0.1,4.9-0.8,6.8-2.8c1.9-2,3.3-5,4.1-8.8C54.8,318.8,55.2,315.2,55,312z"
			/>
		<path class="st0" d="M105.5,342.6H94.8l-11.3-29.9l-5.2,29.9H67.1l8.2-47.3h10.9l11.3,29.9l5.2-29.9h11.1L105.5,342.6z"/>
		<path class="st0" d="M141.1,342.6H130l8.2-47.3h11.1L141.1,342.6z"/>
		<path class="st0" d="M187.5,342.6h-10.8l-11.3-29.9l-5.2,29.9h-11.1l8.2-47.3h10.9l11.3,29.9l5.2-29.9h11.1L187.5,342.6z"/>
		<path class="st0" d="M214.1,329.6l14.5-34.3h12.7l-22.9,47.3h-12.2l-7.9-47.3h12L214.1,329.6z"/>
		<path class="st0" d="M254,343.2c-4.9-0.1-8.9-1.7-11.8-4.9c-3-3.1-4.6-7.3-5-12.6c-0.2-2.6,0-5.7,0.6-9.2c0.6-3.5,1.7-6.8,3.3-9.7
			c1.6-3,3.6-5.4,6-7.4c4-3.3,8.7-4.9,13.9-4.8c3.2,0.1,6.1,0.8,8.5,2.2c2.4,1.4,4.4,3.5,5.8,6.1c1.5,2.7,2.3,5.7,2.5,9.1
			c0.2,2.4,0,5.1-0.4,8.2c-0.5,3.1-1.3,6-2.6,8.8c-1.2,2.8-2.9,5.2-4.8,7.4c-2,2.1-4.3,3.8-7,5.1C260.3,342.7,257.3,343.3,254,343.2
			z M266.6,312c-0.2-5.4-2.3-8.2-6.3-8.5c-3.1-0.2-5.6,1.1-7.6,3.7c-2,2.6-3.3,6.4-4,11.5c-0.4,3.1-0.6,5.5-0.5,7.2
			c0.2,5.5,2.3,8.3,6.4,8.5c2.6,0.1,4.9-0.8,6.8-2.8c1.9-2,3.3-5,4.1-8.8C266.4,318.8,266.8,315.2,266.6,312z"/>
		<path class="st0" d="M290.4,342.6h-11.1l8.2-47.3h11.1L290.4,342.6z"/>
		<path class="st0" d="M337,326.5c-0.3,3.3-1.4,6.3-3.3,8.8c-1.9,2.6-4.4,4.6-7.5,5.9c-3.1,1.4-6.4,2-10,2
			c-4.9-0.1-8.8-1.7-11.7-4.8c-2.8-3.1-4.4-7.3-4.6-12.5c-0.2-3.5,0.2-7.3,1.2-11.5s2.5-7.7,4.7-10.8c2.2-3.1,4.7-5.4,7.7-6.9
			c3-1.5,6.2-2.3,9.7-2.2c5.2,0.1,9.2,1.6,12.2,4.6c3,3,4.6,7.2,4.9,12.5l-11.1,0c0-2.9-0.5-4.9-1.6-6.2c-1.1-1.2-2.8-1.9-5.1-2
			c-5.9-0.2-9.4,4.4-10.7,13.7c-0.6,4.2-0.9,7.2-0.9,9c-0.1,5.3,1.9,8.1,5.9,8.2c2.6,0.1,4.7-0.6,6.3-1.9c1.6-1.4,2.6-3.3,3-5.8
			L337,326.5z"/>
		<path class="st0" d="M371.9,322.5h-17.4l-2,11.3h20.6l-1.5,8.8h-31.7l8.2-47.3h31.8l-1.5,8.8h-20.6l-1.8,10h17.4L371.9,322.5z"/>
	</g>
</g>
</svg>
