<svg id="Ebene_1" xmlns="http://www.w3.org/2000/svg" viewBox="0 0 566.9 566.9"><style>.st0{clip-path:url(#SVGID_2_);} .st1{fill:url(#path10283_1_);} .st2{fill:#FF5F00;} .st3{fill:#EB001B;} .st4{fill:#F79E1B;} .st5{fill:#253B80;} .st6{fill:#179BD7;} .st7{fill:#222D65;} .st8{fill:#10298E;} .st9{fill:#FFBE00;} .st10{fill:#FDD69D;} .st11{fill:#FFFFFF;} .st12{fill:#EC008C;}</style><path class="st5" d="M219.6 249.3h-28.1c-1.9 0-3.6 1.4-3.9 3.3l-11.3 71.9c-.2 1.4.9 2.7 2.3 2.7H192c1.9 0 3.6-1.4 3.9-3.3l3.1-19.4c.3-1.9 1.9-3.3 3.8-3.3h8.9c18.5 0 29.1-8.9 31.9-26.7 1.3-7.8.1-13.8-3.6-18.1-4-4.7-11.1-7.1-20.4-7.1zm3.2 26.2c-1.5 10.1-9.2 10.1-16.7 10.1h-4.2l3-18.8c.2-1.1 1.2-2 2.3-2h1.9c5.1 0 9.8 0 12.3 2.9 1.5 1.7 1.9 4.3 1.4 7.8zm80.6-.3H290c-1.1 0-2.1.8-2.3 2l-.6 3.8-.9-1.4c-2.9-4.2-9.4-5.6-15.9-5.6-14.8 0-27.5 11.2-30 27-1.3 7.9.5 15.4 5 20.6 4.1 4.8 10 6.8 16.9 6.8 12 0 18.6-7.7 18.6-7.7l-.6 3.7c-.2 1.4.9 2.7 2.3 2.7h12.1c1.9 0 3.5-1.4 3.9-3.3l7.3-46c.1-1.3-1-2.6-2.4-2.6zm-18.7 26.1c-1.3 7.7-7.4 12.8-15.2 12.8-3.9 0-7-1.3-9-3.6-2-2.4-2.7-5.7-2.1-9.4 1.2-7.6 7.4-12.9 15.1-12.9 3.8 0 6.9 1.3 9 3.7 2 2.4 2.8 5.7 2.2 9.4zm90.2-26.1h-13.5c-1.3 0-2.5.6-3.2 1.7l-18.6 27.4-7.9-26.4c-.5-1.6-2-2.8-3.7-2.8h-13.3c-1.6 0-2.7 1.6-2.2 3.1l14.9 43.6-14 19.7c-1.1 1.6 0 3.7 1.9 3.7h13.5c1.3 0 2.5-.6 3.2-1.7l44.9-64.8c1-1.4-.1-3.5-2-3.5z"/><path class="st6" d="M419.6 249.3h-28.1c-1.9 0-3.5 1.4-3.8 3.3l-11.3 71.9c-.2 1.4.9 2.7 2.3 2.7h14.4c1.3 0 2.5-1 2.7-2.3l3.2-20.4c.3-1.9 1.9-3.3 3.8-3.3h8.9c18.5 0 29.1-8.9 31.9-26.7 1.3-7.8 0-13.8-3.6-18.1-3.9-4.7-11-7.1-20.4-7.1zm3.3 26.2c-1.5 10.1-9.2 10.1-16.7 10.1H402l3-18.8c.2-1.1 1.2-2 2.3-2h1.9c5.1 0 9.8 0 12.3 2.9 1.5 1.7 1.9 4.3 1.4 7.8zm80.6-.3h-13.4c-1.2 0-2.1.8-2.3 2l-.6 3.8-.9-1.4c-2.9-4.2-9.4-5.6-15.9-5.6-14.8 0-27.5 11.2-30 27-1.3 7.9.5 15.4 5 20.6 4.1 4.8 10 6.8 16.9 6.8 12 0 18.6-7.7 18.6-7.7l-.6 3.7c-.2 1.4.9 2.7 2.3 2.7h12.1c1.9 0 3.5-1.4 3.8-3.3l7.3-46c.2-1.3-.9-2.6-2.3-2.6zm-18.7 26.1c-1.3 7.7-7.4 12.8-15.2 12.8-3.9 0-7-1.3-9-3.6-2-2.4-2.7-5.7-2.1-9.4 1.2-7.6 7.4-12.9 15.1-12.9 3.8 0 6.9 1.3 9 3.7 1.9 2.4 2.8 5.7 2.2 9.4zm34.5-50.1l-11.5 73.3c-.2 1.4.9 2.7 2.3 2.7h11.6c1.9 0 3.6-1.4 3.9-3.3L537 252c.2-1.4-.9-2.7-2.3-2.7h-13c-1.2 0-2.2.8-2.4 1.9z"/><path class="st5" d="M59.8 341.2l2.1-13.6-4.8-.1H34.4L50.3 227c0-.3.2-.6.4-.8s.5-.3.8-.3H90c12.8 0 21.6 2.7 26.2 7.9 2.2 2.5 3.5 5 4.2 7.9.7 3 .7 6.5 0 10.8v3.1l2.2 1.2c1.8 1 3.3 2.1 4.4 3.3 1.8 2.1 3 4.8 3.5 7.9.5 3.3.3 7.1-.5 11.5-1 5.1-2.6 9.5-4.7 13.1-2 3.3-4.5 6.1-7.5 8.2-2.9 2-6.2 3.6-10.1 4.5-3.7 1-8 1.5-12.6 1.5h-3c-2.1 0-4.2.8-5.9 2.2-1.6 1.4-2.7 3.3-3.1 5.4l-.2 1.2-3.8 24-.2.9c0 .3-.1.4-.2.5-.1.1-.3.1-.4.1H59.8z"/><path class="st6" d="M124.5 253c-.1.7-.2 1.5-.4 2.3-5.1 26.1-22.4 35-44.6 35H68.3c-2.7 0-5 2-5.4 4.6l-5.8 36.7-1.7 10.4c-.3 1.8 1.1 3.3 2.9 3.3h20c2.4 0 4.4-1.7 4.8-4.1l.2-1 3.8-23.9.2-1.3c.4-2.3 2.4-4.1 4.8-4.1h3c19.4 0 34.6-7.9 39-30.7 1.9-9.5.9-17.5-4-23.1-1.6-1.5-3.4-2.9-5.6-4.1z"/><path class="st7" d="M119.2 250.9l-2.4-.6c-.8-.2-1.7-.3-2.5-.5-3-.5-6.4-.7-10-.7H74.2c-.7 0-1.4.2-2.1.5-1.4.7-2.4 2-2.7 3.6L63 293.8l-.2 1.2c.4-2.7 2.7-4.6 5.4-4.6h11.3c22.2 0 39.5-9 44.6-35 .2-.8.3-1.5.4-2.3-1.3-.7-2.7-1.3-4.2-1.8-.3-.2-.7-.3-1.1-.4z"/><path class="st5" d="M69.4 253.2c.3-1.6 1.3-2.9 2.7-3.6.6-.3 1.3-.5 2.1-.5h30.2c3.6 0 6.9.2 10 .7.9.1 1.7.3 2.5.5l2.4.6c.4.1.8.2 1.1.4 1.5.5 2.9 1.1 4.2 1.8 1.5-9.6 0-16.2-5.2-22.1-5.7-6.5-16.1-9.3-29.3-9.3H51.5c-2.7 0-5 2-5.4 4.6L30 327.8c-.3 2 1.2 3.8 3.3 3.8h23.8l6-37.8 6.3-40.6z"/></svg>