<svg id="Ebene_1" xmlns="http://www.w3.org/2000/svg" viewBox="0 0 566.9 566.9"><style>.st0{fill:#10298E;} .st1{fill:#FFBE00;} .st2{fill:none;}</style><path id="path5689_3_" class="st0" d="M140.5 258.8h-34c0-5.6-.7-9.3-2-11.2-2-2.8-7.6-4.2-16.8-4.2-8.9 0-14.8.8-17.7 2.4-2.9 1.6-4.3 5.2-4.3 10.7 0 4.9 1.3 8.2 3.8 9.8 1.8 1.1 4.2 1.8 7.3 2l6.9.5c14.7 1 23.9 1.7 27.6 2.1 11.6 1.2 20.1 4.3 25.3 9.3 4.1 3.9 6.6 9 7.4 15.3.5 3.8.7 8.1.7 12.8 0 10.9-1 19-3.1 24-3.8 9.3-12.3 15.2-25.6 17.7-5.6 1-14 1.6-25.5 1.6-19.1 0-32.3-1.1-39.8-3.4-9.2-2.8-15.3-8.5-18.2-17-1.6-4.7-2.4-12.6-2.4-23.7h34v2.8c0 5.9 1.7 9.7 5.1 11.4 2.3 1.2 5.2 1.8 8.5 1.9h12.5c6.4 0 10.5-.3 12.2-1 3.1-1.2 5.2-3.2 6.2-6 .5-1.7.8-3.9.8-6.5 0-6-2.2-9.6-6.5-10.9-1.6-.5-9.2-1.2-22.8-2.1-10.9-.8-18.4-1.5-22.7-2.2-11.1-2.1-18.6-6.4-22.3-12.9-3.3-5.5-4.9-13.9-4.9-25.1 0-8.5.9-15.4 2.6-20.5 1.8-5.1 4.6-9 8.5-11.7 5.7-4.1 13.1-6.5 22-7.2 7.4-.7 15.7-1 24.8-1 14.3 0 24.5.8 30.5 2.5 14.8 4 22.2 15.1 22.2 33.4.1 1.2-.1 3.4-.3 6.4"/><path id="path5693_3_" class="st0" d="M290.2 351.4v-136h68.2c9.4 0 16.5.8 21.4 2.3 11.2 3.5 18.7 10.7 22.6 21.6 2 5.7 3 14.3 3 25.8 0 13.8-1.1 23.7-3.3 29.7-4.4 11.9-13.4 18.8-27 20.6-1.6.3-8.4.5-20.4.7l-6.1.2h-21.8v35.1h-36.6zm36.6-66.7h22.8c7.2-.3 11.6-.8 13.2-1.7 2.2-1.2 3.6-3.6 4.3-7.1.5-2.4.7-5.9.7-10.6 0-5.8-.5-10-1.4-12.8-1.3-3.9-4.5-6.3-9.5-7.1-1-.1-3.4-.2-7.1-.2h-23.1v39.5h.1z"/><path id="path5697_3_" class="st0" d="M483.4 327.9h-48.9l-6.6 23.5H390l40.8-135.9H486l41.3 135.9h-37.1l-6.8-23.5zm-7.2-26.5L459 242.5l-16.6 58.9h33.8z"/><path id="path5705_3_" class="st0" d="M239.7 235.1c14.4 0 27.9 6.4 37 17.6l.6.7.4-.8 7.9-16.9.2-.4-.3-.3c-13-12.3-30-19-48-19-14.1 0-27.6 4.1-39.1 11.9-11.3 7.6-19.9 18.2-25 30.5l.5-.4H158l-.2.3-9.1 19.5-.4.8H169l-.6-.6c-.2 2-.2 3.8-.2 5.5 0 2.2.1 4.4.3 6.7l.6-.6h-10.3l-.2.3-9.1 19.5-.4.8h25l-.5-.4c10.9 25.1 35.9 41.2 63.7 41.2 13.9 0 27.4-4 38.9-11.7l.3-.2v-25.6l-1 1.2c-9.1 10.3-22.1 16.2-35.8 16.2-16.1 0-31-8.1-39.9-21.6l-.5.9h50.8l.2-.3 9.1-19.5.4-.8H192l.6.5c-.3-2.4-.5-4.7-.5-7.1 0-1.6.1-3.2.2-4.8l-.6.5h73.2l.2-.3 9.1-19.5.4-.8H198l.5.9c8.5-14.7 24.3-23.9 41.2-23.9M198 259.3h75.6l-.5-.8L264 278l.5-.3h-73.3l-.1.5c-.2 1.6-.2 3.3-.2 4.9 0 2.4.2 4.9.5 7.3l.1.5h67.4l-.5-.8-9.1 19.5.5-.3h-51.5l.6.9c9.1 13.9 24.4 22.1 40.8 22.1 14 0 27.4-6.1 36.7-16.6l-1-.4V339l.3-.5c-11.3 7.5-24.5 11.5-38.2 11.5-27.4 0-51.9-15.9-62.6-40.5l-.2-.3h-24.5l.5.8 9.1-19.5-.5.3h10.5l-.1-.6c-.2-2.2-.3-4.4-.3-6.6 0-1.7.1-3.4.2-5.4l.1-.6h-20.4l.5.8 9.1-19.5-.5.3h15.8l.1-.4c5-12.2 13.5-22.5 24.6-30 11.3-7.6 24.7-11.7 38.5-11.7 17.7 0 34.5 6.6 47.2 18.7l-.1-.7-7.9 16.9 1-.1c-9.3-11.5-23.1-18.1-37.9-18.1-17.3 0-33.5 9.4-42.3 24.4l-.5.9h1.1v.2z"/><path id="path5701_3_" class="st1" d="M239.7 234.6c15.1 0 28.6 7 37.4 17.8l7.9-16.9c-12.3-11.7-29.1-18.8-47.6-18.8-28.8 0-53.5 17.4-63.6 42.1h-15.4l-9.1 19.5h19.8c-.1 1.8-.2 3.6-.2 5.5 0 2.2.1 4.4.3 6.6h-9.9l-9.1 19.5h24.1c10.4 24 34.8 40.9 63.1 40.9 14.3 0 27.6-4.3 38.6-11.6v-23.9c-8.8 10.1-21.8 16.4-36.2 16.4-16.9 0-31.7-8.7-40.3-21.9h50.4l9.1-19.5h-67c-.3-2.3-.5-4.7-.5-7.2 0-1.7.1-3.3.2-4.9h72.8l9.1-19.5H198c8.3-14.4 23.9-24.1 41.7-24.1"/><path class="st2" d="M30 335.6h506.9v50.9H30v-50.9z"/></svg>