<svg id="Ebene_1" xmlns="http://www.w3.org/2000/svg" xmlns:xlink="http://www.w3.org/1999/xlink" viewBox="0 0 566.9 566.9"><style>.st0{clip-path:url(#SVGID_2_);} .st1{fill:url(#path10283_1_);} .st2{fill:#FF5F00;} .st3{fill:#EB001B;} .st4{fill:#F79E1B;} .st5{fill:#253B80;} .st6{fill:#179BD7;} .st7{fill:#222D65;} .st8{fill:#10298E;} .st9{fill:#FFBE00;} .st10{fill:#FDD69D;} .st11{fill:#FFFFFF;} .st12{fill:#EC008C;}</style><g id="layer1"><g transform="matrix(4.9847 0 0 -4.9847 -1803.82 503.202)" id="g10267"><defs><path id="SVGID_1_" d="M419.1 50.2c-.1-4.7 4.2-7.3 7.4-8.9 3.3-1.6 4.4-2.6 4.4-4.1 0-2.2-2.6-3.2-5.1-3.2-4.2-.1-6.7 1.1-8.7 2.1l-1.5-7.2c2-.9 5.6-1.7 9.4-1.7 8.9 0 14.7 4.4 14.7 11.2 0 8.6-11.9 9.1-11.8 12.9 0 1.2 1.1 2.4 3.6 2.7 1.2.2 4.5.3 8.3-1.5l1.5 6.9c-2 .7-4.7 1.5-7.9 1.5-8.4.1-14.3-4.4-14.3-10.7m36.5 10.2c-1.6 0-3-.9-3.6-2.4l-12.7-30.3h8.9l1.8 4.9h10.8l1-4.9h7.8l-6.8 32.7h-7.2m1.2-8.9l2.6-12.3h-7l4.4 12.3m-48.4 8.9l-7-32.7h8.4l7 32.7h-8.4m-12.5 0l-8.8-22.2-3.6 18.8c-.4 2.1-2.1 3.3-3.9 3.3h-14.4l-.2-.9c3-.6 6.3-1.7 8.3-2.8 1.2-.7 1.6-1.3 2-2.9l6.7-26.1h8.9l13.7 32.7-8.7.1"/></defs><clipPath id="SVGID_2_"><use xlink:href="#SVGID_1_" overflow="visible"/></clipPath><g id="g10269" class="st0"><g id="g10275" transform="translate(351.61 96.896)"><linearGradient id="path10283_1_" gradientUnits="userSpaceOnUse" x1="10.237" y1="-109.606" x2="11.283" y2="-109.606" gradientTransform="scale(447.2655) rotate(20.218 312.962 26.16)"><stop offset="0" stop-color="#222357"/><stop offset="1" stop-color="#254AA5"/></linearGradient><path id="path10283" class="st1" d="M2.5-40l103 38 23.4-63.6-103-37.9"/></g></g></g></g></svg>