<?xml version="1.0" encoding="utf-8"?>
<!-- Generator: $$$/GeneralStr/196=Adobe Illustrator 27.6.0, SVG Export Plug-In . SVG Version: 6.00 Build 0)  -->
<svg version="1.1" id="Calque_1" xmlns="http://www.w3.org/2000/svg" xmlns:xlink="http://www.w3.org/1999/xlink" x="0px" y="0px"
	 viewBox="0 0 253 255" style="enable-background:new 0 0 253 255;" xml:space="preserve">
<style type="text/css">
	.st0{fill-rule:evenodd;clip-rule:evenodd;fill:#BEF1FF;}
	.st1{fill:#BEF1FF;}
</style>
<g>
	<g id="Icons_x2F_System_x2F_chat_00000147194598731373884330000012596455496328114846_">
		<path id="Color_00000099631998026191713180000008614646406779513497_" class="st0" d="M44.2,216.9l37.3-18.3
			c2.7-0.9,5.5-1.8,8.2-0.9c11,2.7,22.8,4.6,34.6,4.6c60.1,0,107.5-38.2,107.5-83.9s-47.4-83.9-107.5-83.9S16.8,72.8,16.8,118.4
			c0,21,10,40.1,27.4,55.6c2.7,2.7,4.6,6.4,3.7,11L44.2,216.9z M40.6,241.6c-8.2,3.7-17.3-2.7-16.4-11.9l6.4-46.5
			c-19.2-18.3-29.1-41-29.1-65.6c0-57.4,56.5-102,124.9-102S251,61.1,251,117.6s-56.5,102-124.9,102c-11.9,0-23.7-0.9-34.6-3.7
			L40.6,241.6z"/>
	</g>
	<g>
		<path class="st1" d="M98,165.9c-2.7,0-4.6-0.9-6.4-2.7l-37.3-36.4c-1.8-1.8-2.7-3.7-2.7-6.4c0-2.7,0.9-4.6,2.7-6.4l37.3-36.4
			c1.8-1.8,3.7-2.7,6.4-2.7s4.6,0.9,6.4,2.7s2.7,3.7,2.7,6.4c0,2.7-0.9,4.6-2.7,6.4l-30,30l30,30c3.7,3.7,3.7,9.1,0,12.8
			C103.5,165,100.7,165.9,98,165.9C98.9,165.9,98,165.9,98,165.9z"/>
	</g>
	<g>
		<path class="st1" d="M153.6,165.9c-2.7,0-4.6-0.9-6.4-2.7c-3.7-3.7-3.7-9.1,0-12.8l30-30l-30-30c-1.8-1.8-2.7-3.7-2.7-6.4
			s0.9-4.6,2.7-6.4s3.7-2.7,6.4-2.7l0,0c2.7,0,4.6,0.9,6.4,2.7l37.3,36.4c1.8,1.8,2.7,3.7,2.7,6.4c0,2.7-0.9,4.6-2.7,6.4L160,163.2
			C158.1,165,156.3,165.9,153.6,165.9z"/>
	</g>
</g>
</svg>
