<?xml version="1.0" encoding="utf-8"?>
<!-- Generator: $$$/GeneralStr/196=Adobe Illustrator 27.6.0, SVG Export Plug-In . SVG Version: 6.00 Build 0)  -->
<svg version="1.1" id="Layer_1" xmlns="http://www.w3.org/2000/svg" xmlns:xlink="http://www.w3.org/1999/xlink" x="0px" y="0px"
	 viewBox="0 0 32 32" style="enable-background:new 0 0 32 32;" xml:space="preserve">
<style type="text/css">
	.st0{fill:#BEF1FF;}
</style>
<path class="st0" d="M31.2,12.6c0-1.3-0.2-2.6-0.6-3.8c-0.3-1.5-1.5-2.7-3-3c-0.8-0.2-1.6-0.3-2.4-0.3c-1.8-0.1-4.1-0.2-6.5-0.3
	c-3.4-0.1-6.9,0-10.4,0.2C7.1,5.4,5.9,5.5,4.8,5.7C3,5.9,1.6,7.3,1.3,9C1.2,9.7,1.1,10.4,1,11.1c-0.3,2.3-0.3,4.6-0.3,6.9
	c0,1.7,0.2,3.3,0.6,4.9C1.6,24.7,3,26,4.8,26.3c1.1,0.2,2.2,0.3,3.4,0.4c1.9,0.1,3.7,0.1,5.6,0.2l2.2,0.1l0,0c2.9,0,6-0.1,9.2-0.3
	c0.9,0,1.7-0.2,2.6-0.4c1.6-0.4,2.7-1.6,3-3.2c0.4-2,0.6-4.1,0.6-6.1C31.3,15.3,31.3,13.8,31.2,12.6z M21,16.4l-7.7,4.5
	c-0.1,0-0.2,0.1-0.2,0.1c-0.1,0-0.2,0-0.2-0.1c-0.2-0.1-0.2-0.3-0.2-0.4v-8.9c0-0.2,0.1-0.3,0.2-0.4c0.2-0.1,0.3-0.1,0.5,0l7.7,4.4
	c0.2,0.1,0.3,0.3,0.2,0.4C21.2,16.2,21.2,16.3,21,16.4z"/>
</svg>
