<?xml version="1.0" encoding="utf-8"?>
<!-- Generator: $$$/GeneralStr/196=Adobe Illustrator 27.6.0, SVG Export Plug-In . SVG Version: 6.00 Build 0)  -->
<svg version="1.1" id="Calque_1" xmlns="http://www.w3.org/2000/svg" xmlns:xlink="http://www.w3.org/1999/xlink" x="0px" y="0px"
	 viewBox="0 0 30.5 29.5" style="enable-background:new 0 0 30.5 29.5;" xml:space="preserve">
<style type="text/css">
	.st0{clip-path:url(#SVGID_00000088826468480331645490000000139953256425237675_);}
	.st1{clip-path:url(#SVGID_00000001636373972326176300000009715321676672638616_);}
	.st2{fill:#BEF1FF;}
</style>
<g>
	<defs>
		<path id="SVGID_1_" d="M0.4,29.5h6.8V9.9H0.4V29.5z M23.1,9.2c-2.8,0-4.4,1-6.2,3.3V9.9h-6.8v19.7h6.8V18.8c0-2.3,1.1-4.5,3.6-4.5
			s3.2,2.2,3.2,4.4v10.7h6.8V18.3C30.5,10.6,25.9,9.2,23.1,9.2z M3.8,0C1.8-0.1,0.1,1.5,0,3.5c0.1,2,1.8,3.6,3.8,3.5
			c2,0.1,3.7-1.5,3.8-3.5C7.5,1.5,5.8-0.1,3.8,0z"/>
	</defs>
	<use xlink:href="#SVGID_1_"  style="overflow:visible;fill:#BEF1FF;"/>
	<clipPath id="SVGID_00000126297939563681295340000006985321227005798818_">
		<use xlink:href="#SVGID_1_"  style="overflow:visible;"/>
	</clipPath>
	<g id="Groupe_27" style="clip-path:url(#SVGID_00000126297939563681295340000006985321227005798818_);">
		<g>
			<defs>
				<rect id="SVGID_00000013904472807043283660000001553901900810651547_" x="-1" y="-2" width="31.5" height="31.5"/>
			</defs>
			<use xlink:href="#SVGID_00000013904472807043283660000001553901900810651547_"  style="overflow:visible;fill:#BEF1FF;"/>
			<clipPath id="SVGID_00000139286870221615095680000004152048255703576242_">
				<use xlink:href="#SVGID_00000013904472807043283660000001553901900810651547_"  style="overflow:visible;"/>
			</clipPath>
			
				<g id="Groupe_26" transform="translate(-0.985 -1.966)" style="clip-path:url(#SVGID_00000139286870221615095680000004152048255703576242_);">
				<path id="Tracé_34" class="st2" d="M-3.9-3h40.4v39.4H-3.9V-3z"/>
			</g>
		</g>
	</g>
</g>
</svg>
