<?xml version="1.0" encoding="utf-8"?>
<!-- Generator: $$$/GeneralStr/196=Adobe Illustrator 27.6.0, SVG Export Plug-In . SVG Version: 6.00 Build 0)  -->
<svg version="1.1" id="Calque_1" xmlns="http://www.w3.org/2000/svg" xmlns:xlink="http://www.w3.org/1999/xlink" x="0px" y="0px"
	 viewBox="0 0 31.5 25.7" style="enable-background:new 0 0 31.5 25.7;" xml:space="preserve">
<style type="text/css">
	.st0{clip-path:url(#SVGID_00000062172778430250682530000015862711362527752612_);}
	.st1{clip-path:url(#SVGID_00000097469936616455406990000013150433337560018328_);}
	.st2{fill:#BEF1FF;}
</style>
<g>
	<defs>
		<path id="SVGID_1_" d="M31.5,3.1c-1.1,0.5-2.4,0.9-3.6,1c1.3-0.8,2.2-2.1,2.7-3.5c-1.2,0.7-2.6,1.2-4,1.4l0,0
			c-1.8-1.9-4.7-2.6-7.2-1.6c-2.5,1-4.1,3.4-4.1,6.1c0,0.5,0.1,1,0.2,1.4l0,0C10.3,7.8,5.4,5.4,2.1,1.3C0.4,4.2,1.3,8,4.1,9.9
			c-1,0.1-2-0.2-2.8-0.7c-0.1,3.1,2,5.7,5,6.4c-0.9,0.3-1.8,0.4-2.7,0.2c0.2,1.9,2.9,4.4,5.8,4.4c-1,1.2-4.9,3.4-9.4,2.7
			c3.1,1.9,6.6,2.9,10.2,2.9c5,0,9.8-2,13.2-5.6c3.4-3.6,5.2-8.5,5-13.4V6.5C29.6,5.6,30.7,4.5,31.5,3.1L31.5,3.1z"/>
	</defs>
	<use xlink:href="#SVGID_1_"  style="overflow:visible;fill:#BEF1FF;"/>
	<clipPath id="SVGID_00000098939542321509485220000011806366741728504254_">
		<use xlink:href="#SVGID_1_"  style="overflow:visible;"/>
	</clipPath>
	<g id="Groupe_29" style="clip-path:url(#SVGID_00000098939542321509485220000011806366741728504254_);">
		<g>
			<defs>
				<rect id="SVGID_00000106857798542110746770000010507604686190320543_" y="-3.9" width="31.5" height="31.5"/>
			</defs>
			<use xlink:href="#SVGID_00000106857798542110746770000010507604686190320543_"  style="overflow:visible;fill:#BEF1FF;"/>
			<clipPath id="SVGID_00000110461109618257779650000014146394722335249027_">
				<use xlink:href="#SVGID_00000106857798542110746770000010507604686190320543_"  style="overflow:visible;"/>
			</clipPath>
			
				<g id="Groupe_28" transform="translate(0 -3.869)" style="clip-path:url(#SVGID_00000110461109618257779650000014146394722335249027_);">
				<path id="Tracé_37" class="st2" d="M-4.9-1.1h41.4v35.5H-4.9V-1.1z"/>
			</g>
		</g>
	</g>
</g>
</svg>
