<svg width="20" height="20" viewBox="0 0 20 20" fill="#2C2D2E" xmlns="http://www.w3.org/2000/svg"><path d="M0 10c0-4.714 0-7.071 1.464-8.536C2.93 0 5.286 0 10 0c4.714 0 7.071 0 8.535 1.464C20 2.93 20 5.286 20 10c0 4.714 0 7.071-1.465 8.535C17.072 20 14.714 20 10 20s-7.071 0-8.536-1.465C0 17.072 0 14.714 0 10Z" fill="#005FF9"/><rect width="20" height="20" rx="5" fill="#005FF9"/><path d="M10 2.604c-4.076 0-7.396 3.32-7.396 7.396 0 4.075 3.32 7.396 7.396 7.396 2.5 0 4.166-1.29 4.166-1.29l-.976-1.119s-1.302.938-3.19.938A5.93 5.93 0 0 1 4.075 10 5.93 5.93 0 0 1 10 4.076 5.93 5.93 0 0 1 15.924 10c0 1.693-.547 2.253-1.21 2.253-.56 0-.99-.43-.99-1.042V10a3.723 3.723 0 1 0-7.448 0A3.723 3.723 0 0 0 10 13.724c1.041 0 1.979-.43 2.656-1.12a2.43 2.43 0 0 0 2.057 1.133c1.498 0 2.683-1.198 2.683-3.737 0-4.075-3.32-7.396-7.396-7.396ZM7.747 10a2.253 2.253 0 0 1 4.505 0A2.262 2.262 0 0 1 10 12.253 2.253 2.253 0 0 1 7.747 10Z" fill="#FF9E00"/></svg>