<svg width="20" height="20" viewBox="0 0 20 20" fill="#2C2D2E" xmlns="http://www.w3.org/2000/svg"><rect width="20" height="20" rx="5" fill="#005FF9"/><path fill-rule="evenodd" clip-rule="evenodd" d="M4.212 4.212c-.878.879-.878 2.293-.878 5.121v1.334c0 2.828 0 4.242.878 5.121.879.879 2.293.879 5.121.879h1.334c2.828 0 4.242 0 5.121-.879.879-.879.879-2.293.879-5.121V9.333c0-2.828 0-4.242-.879-5.121-.879-.879-2.293-.879-5.121-.879H9.334c-2.829 0-4.243 0-5.122.879Z" fill="#fff"/><path fill-rule="evenodd" clip-rule="evenodd" d="M16.618 6.667H3.382c.08-1.162.287-1.911.83-2.455.879-.879 2.293-.879 5.122-.879h1.333c2.828 0 4.243 0 5.121.879.544.544.751 1.293.83 2.455Z" fill="#FF9E00"/></svg>