<svg fill="none" height="72" viewBox="0 0 36 36" width="72" xmlns="http://www.w3.org/2000/svg" xmlns:xlink="http://www.w3.org/1999/xlink"><mask id="a" height="14" maskUnits="userSpaceOnUse" width="15" x="10" y="9"><path d="m17.1992 9c3.7863 0 6.8603 3.0727 6.8603 6.8576s-3.074 6.8576-6.8603 6.8576c-3.7864 0-6.8603-3.0727-6.8603-6.8576s3.0739-6.8576 6.8603-6.8576z" fill="#fff"/></mask><mask id="b" height="15" maskUnits="userSpaceOnUse" width="15" x="15" y="13"><path d="m22.1584 13.0767c3.8461 0 6.9685 3.1212 6.9685 6.9656 0 3.8446-3.1224 6.9658-6.9685 6.9658-3.846 0-6.9685-3.1212-6.9685-6.9658 0-3.8444 3.1225-6.9656 6.9685-6.9656z" fill="#fff"/></mask><path d="m0 18c0-8.48528 0-12.72792 2.63604-15.36396s6.87868-2.63604 15.36396-2.63604c8.4853 0 12.7279 0 15.364 2.63604 2.636 2.63604 2.636 6.87868 2.636 15.36396 0 8.4853 0 12.7279-2.636 15.364-2.6361 2.636-6.8787 2.636-15.364 2.636-8.48528 0-12.72792 0-15.36396-2.636-2.63604-2.6361-2.63604-6.8787-2.63604-15.364z" fill="#005ff9"/><path clip-rule="evenodd" d="m12.2864 16.8763c-.0874-.0045-.1754-.0068-.2638-.0068-2.79712 0-5.06801 2.27-5.06801 5.0661 0 .0028 0 .0057.00001.0085.00093 2.7951 2.27146 5.0642 5.068 5.0642h10.136c2.7972 0 5.0681-2.27 5.0681-5.0659 0-2.7961-2.2709-5.0661-5.0681-5.0661z" fill="#ffbe3f" fill-rule="evenodd"/><path clip-rule="evenodd" d="m17.1987 9c3.7863 0 6.8604 3.0727 6.8604 6.8576s-3.0741 6.8576-6.8604 6.8576c-3.7864 0-6.8603-3.0727-6.8603-6.8576s3.0739-6.8576 6.8603-6.8576z" fill="#f3a23a" fill-rule="evenodd"/><g mask="url(#a)"><path clip-rule="evenodd" d="m12.0226 16.876c2.7972 0 5.0681 2.27 5.0681 5.0661 0 2.7959-2.2709 5.0659-5.0681 5.0659-2.79712 0-5.06801-2.27-5.06801-5.0659 0-2.7961 2.27089-5.0661 5.06801-5.0661z" fill="#ffcf38" fill-rule="evenodd"/></g><path clip-rule="evenodd" d="m22.1589 13.0767c3.8461 0 6.9685 3.1212 6.9685 6.9656 0 3.8446-3.1224 6.9658-6.9685 6.9658-3.846 0-6.9685-3.1212-6.9685-6.9658 0-3.8444 3.1225-6.9656 6.9685-6.9656z" fill="#f3823a" fill-rule="evenodd"/><g mask="url(#b)"><path clip-rule="evenodd" d="m17.1992 9c3.7863 0 6.8603 3.0727 6.8603 6.8576s-3.074 6.8576-6.8603 6.8576c-3.7864 0-6.8603-3.0727-6.8603-6.8576s3.0739-6.8576 6.8603-6.8576z" fill="#f26c32" fill-rule="evenodd"/></g></svg>