<svg width="20" height="20" viewBox="0 0 20 20" fill="#2C2D2E" xmlns="http://www.w3.org/2000/svg"><rect width="20" height="20" rx="5" fill="#005FF9"/><g clip-path="url(#clip0_1569_55995)"><path fill-rule="evenodd" clip-rule="evenodd" d="M15.524 11.953a3.05 3.05 0 0 0-3.048-3.048H6.381a3.05 3.05 0 0 0-3.048 3.048A3.049 3.049 0 0 0 6.381 15h6.095a3.049 3.049 0 0 0 3.048-3.047Z" fill="#F3C03A"/><path fill-rule="evenodd" clip-rule="evenodd" d="M6.381 8.905a3.05 3.05 0 0 1 3.048 3.048A3.049 3.049 0 0 1 6.38 15a3.049 3.049 0 0 1-3.048-3.047 3.05 3.05 0 0 1 3.048-3.048Z" fill="#F3C03A"/><path fill-rule="evenodd" clip-rule="evenodd" d="M9.494 4.167a4.127 4.127 0 0 1 4.126 4.125 4.127 4.127 0 0 1-4.126 4.126A4.127 4.127 0 0 1 5.37 8.291a4.127 4.127 0 0 1 4.125-4.125Z" fill="#F3A23A"/><mask id="mask0_1569_55995" style="mask-type:alpha" maskUnits="userSpaceOnUse" x="5" y="4" width="9" height="9"><path d="M9.494 4.167a4.127 4.127 0 0 1 4.126 4.125 4.127 4.127 0 0 1-4.126 4.126A4.127 4.127 0 0 1 5.37 8.291a4.127 4.127 0 0 1 4.125-4.125Z" fill="#fff"/></mask><g mask="url(#mask0_1569_55995)"><path fill-rule="evenodd" clip-rule="evenodd" d="M6.381 8.905a3.05 3.05 0 0 1 3.048 3.048A3.049 3.049 0 0 1 6.38 15a3.049 3.049 0 0 1-3.048-3.047 3.05 3.05 0 0 1 3.048-3.048Z" fill="#FFCF38"/></g><path fill-rule="evenodd" clip-rule="evenodd" d="M12.476 6.62a4.192 4.192 0 0 1 4.191 4.19 4.192 4.192 0 0 1-4.19 4.19 4.192 4.192 0 0 1-4.19-4.19 4.192 4.192 0 0 1 4.19-4.19Z" fill="#F3823A"/><mask id="mask1_1569_55995" style="mask-type:alpha" maskUnits="userSpaceOnUse" x="8" y="6" width="9" height="9"><path d="M12.476 6.62a4.192 4.192 0 0 1 4.191 4.19 4.192 4.192 0 0 1-4.19 4.19 4.192 4.192 0 0 1-4.19-4.19 4.192 4.192 0 0 1 4.19-4.19Z" fill="#fff"/></mask><g mask="url(#mask1_1569_55995)"><path fill-rule="evenodd" clip-rule="evenodd" d="M9.494 4.167a4.127 4.127 0 0 1 4.126 4.125 4.127 4.127 0 0 1-4.126 4.126A4.127 4.127 0 0 1 5.37 8.291a4.127 4.127 0 0 1 4.125-4.125Z" fill="#F26C32"/></g></g><defs><clipPath id="clip0_1569_55995"><path fill="#fff" transform="translate(3.333 4.167)" d="M0 0h13.333v10.833H0z"/></clipPath></defs></svg>