<svg xmlns="http://www.w3.org/2000/svg" viewBox="0 0 495.37 309.31"><defs><clipPath id="clip-path"><path class="cls-1" d="M224.2 102.62h53.16v56.16H224.2z"/></clipPath><clipPath id="clip-path-2"><path class="cls-2" d="M35.18 79.82C-1.47 130.86-14.68 216.6 20.93 248c52.71 46.47 158-74 339.4-47.43 51.21 7.5 92.4 24.36 107.9 4.62 18.84-24-12.06-87-49.29-124.56-92.79-93.74-304.84-110.69-383.76-.81z"/></clipPath><style>.cls-1{fill:#fff}.cls-2{fill:none}.cls-3{fill:#ffb419}.cls-5{fill:#cec7ff}.cls-6{fill:#8f87f9}.cls-7{fill:#ebebff}.cls-8{fill:#cec6ff}.cls-13{fill:#2411aa}</style></defs><g id="Layer_2" data-name="Layer 2"><g id="Layer_1-2" data-name="Layer 1"><path class="cls-3" d="M254.77 279.5a69.49 69.49 0 00-15.36 9.08 2.12 2.12 0 00-.06 3.3 3.16 3.16 0 002.76.65l3.89-1 6.84 8.16 20.43-4.54 2.08-10.61s-11.77-.43-20.58-5.04z"/><path d="M254.77 279.5a69.49 69.49 0 00-15.36 9.08 2.12 2.12 0 00-.06 3.3l.3.25a3.13 3.13 0 002.11.74l3.3-.09 7.78 7 .22-.05c.41-7.46 1.1-14.66 1.71-20.18z" fill="#ff9a2c"/><path class="cls-1" d="M493.48 52.57a40.89 40.89 0 01-39.18 29.18 40.87 40.87 0 01-40.87-40.88A40.87 40.87 0 01454.3 0a40.76 40.76 0 0111.33 1.59"/><path class="cls-1" d="M465.63 1.59a40.9 40.9 0 0129.55 39.28 41 41 0 01-1.7 11.7"/><path class="cls-5" d="M494.92 36.29l.27 2.73a20.89 20.89 0 01.17 2.74l-.06 2.76c0 .92-.19 1.82-.27 2.74a40.42 40.42 0 01-1 5.44c-.19.91-.55 1.77-.82 2.65a21.46 21.46 0 01-1 2.61l-1.15 2.54c-.43.83-.92 1.62-1.38 2.43l-.7 1.21c-.26.39-.54.77-.81 1.15l-1.63 2.27a42.44 42.44 0 01-3.82 4.11c-.69.63-1.34 1.32-2.08 1.89l-2.22 1.72a39.8 39.8 0 01-9.93 5.28 44.31 44.31 0 01-5.41 1.63c-.92.2-1.86.32-2.79.48a18.91 18.91 0 01-2.81.34l-2.83.16c-.94 0-1.88-.07-2.83-.1a40.41 40.41 0 01-16.34-4.27l-1.28-.62c-.41-.23-.81-.49-1.21-.73L430.57 76l-2.27-1.7c-.37-.29-.76-.55-1.11-.87l-1.05-1a40.73 40.73 0 01-7.33-8.6l-1.45-2.43c-.47-.81-.82-1.7-1.24-2.54a45.59 45.59 0 01-2.05-5.27c-.26-.9-.46-1.82-.69-2.74l-.38-1.37c-.09-.46-.14-.93-.21-1.39l-.38-2.8c-.06-.93-.08-1.87-.11-2.81a40.49 40.49 0 0121-36.73 41.76 41.76 0 00-14.34 16 40.12 40.12 0 00-4.36 20.67c.06.88.1 1.77.18 2.65l.45 2.62c.08.43.13.87.22 1.31l.35 1.28c.24.85.44 1.71.7 2.55a44.42 44.42 0 002 4.89c.41.78.75 1.6 1.21 2.35l1.4 2.25a39 39 0 006.89 7.95l1 .89c.33.3.7.53 1.05.8l2.12 1.58 2.25 1.36c.38.23.75.47 1.14.67l1.19.57A37.58 37.58 0 00452 80.18c.88 0 1.76.13 2.64.11l2.64-.11a17.75 17.75 0 002.63-.26c.87-.14 1.75-.23 2.61-.4a42.86 42.86 0 005.1-1.43 40.1 40.1 0 009.47-4.72l2.15-1.56c.72-.52 1.35-1.15 2-1.72a48 48 0 003.76-3.78l1.66-2.1c.27-.35.55-.69.82-1.06l.72-1.13c.47-.75 1-1.49 1.42-2.27l1.23-2.39a42.21 42.21 0 004.07-21.07z"/><path class="cls-3" d="M462.21 40.14l25-.7s1.09-3.27-4.18-12.15c-1.93-3.21-20.82 12.85-20.82 12.85z"/><path class="cls-6" d="M457.62 41.43a4 4 0 00-3.93-.45c-.79-2.15-1.93-5-3.23-8.13-2.72-6.5-5.14-11.68-5.42-11.56s1.7 5.48 4.42 12c1.32 3.16 2.57 6 3.54 8.08a4.07 4.07 0 106.26 4.16 4 4 0 00-.84-3.32c-.23-.37-.23-.37-.8-.78z"/><path class="cls-6" d="M455.52 44.4l36.42-1.4s-14.94 5-36.42 1.4z"/><path class="cls-7" d="M35.18 78.82C-1.47 129.86-14.68 215.6 20.93 247c52.71 46.47 158-74 339.4-47.43 51.21 7.5 92.4 24.36 107.9 4.62 18.84-24-12.06-87-49.29-124.56-92.79-93.74-304.84-110.69-383.76-.81z"/><path class="cls-1" d="M127.88 69s95.78-6.88 170.52 14.22c3.38 23.62 4.8 37.36 5 98.71-177.3-3.15-174.3-3.15-174.3-3.15z"/><path class="cls-5" d="M131 176.1V68.22h-1.59a4.63 4.63 0 00-4.62 4.63V193a4.62 4.62 0 004.62 4.63h70.39v13.77c10.28-2.9 21-5.57 32.1-7.85v-5.88h37.86a307.59 307.59 0 0133.31-2 4.64 4.64 0 00.84-2.65V176.1z"/><path class="cls-2" d="M199.77 211.4q-5.66 1.6-11.15 3.29h11.15z"/><path class="cls-8" d="M299.25 197.67a4.64 4.64 0 003.79-2 307.59 307.59 0 00-33.31 2z"/><path class="cls-7" d="M231.87 203.55c12.11-2.49 24.73-4.51 37.86-5.88h-37.86z"/><path class="cls-8" d="M119.82 70.22c3.89-1 7.86-1.55 11.82-2.14l6-.73c2-.23 4-.39 6-.59l3-.26 3-.18 6-.35c4-.16 8-.23 12-.33a455.53 455.53 0 0148 2.29l11.95 1.28 11.91 1.6 6 .83 5.93 1 11.84 2c7.87 1.43 15.7 3.16 23.53 4.77l11.67 2.84q5.82 1.41 11.64 2.92c-7.9-1.35-15.73-2.9-23.6-4.32l-11.82-2c-3.94-.62-7.86-1.41-11.81-2L251 75.23l-6-.88-5.94-.73-11.87-1.5-11.9-1.2-6-.62-6-.46c-4-.28-7.95-.68-11.93-.86l-11.94-.65-12-.36h-12l-6 .11-3 .06-3 .13a207.3 207.3 0 00-23.6 1.95z"/><path class="cls-8" d="M296.85 76a149.56 149.56 0 014.33 19.39c1.07 6.55 1.82 13.14 2.32 19.75s.75 13.24.63 19.87c0 3.31-.17 6.63-.3 9.93-.07 1.66-.24 3.31-.36 5s-.27 3.3-.43 4.94c-.14-6.62-.22-13.22-.47-19.81l-.18-4.94-.26-4.94c-.14-3.29-.39-6.57-.62-9.86-.47-6.57-1.12-13.13-1.87-19.68S298 82.51 296.85 76z"/><path class="cls-1" d="M224.2 102.62h53.16v56.16H224.2z"/><g clip-path="url(#clip-path)"><path class="cls-1" d="M242.17 111.3c9.54 0 27.87 0 40.33 1.16M244.41 124c11.66 0 23.76-1.16 35.41-1.16m-34.97 14.45c26.74-1.74 53.48-.58 79.55-.58m-93.29-24.17a2 2 0 00.34.14 1.93 1.93 0 00.33.08h.28a1.5 1.5 0 00.55-.11 1.61 1.61 0 00.82-.68 1.58 1.58 0 00.18-.58.91.91 0 00-.16-.62 1.18 1.18 0 00-.37-.34l.12-.66-.9-.23h-.23a1.92 1.92 0 00-.55.11 1.55 1.55 0 00-.73.63 1.32 1.32 0 00-.15.46v.14a1.06 1.06 0 000 .19 2.36 2.36 0 00-.1.46 1 1 0 00.57 1.01zm.35 11.51l.2-.07a.83.83 0 01.6 0 .72.72 0 00.7-.07.87.87 0 00.27-.76 2.25 2.25 0 01.13-.69l.07-.19-.07-.2a1.62 1.62 0 00-1.22-1.07 1.54 1.54 0 00-1.26.33 1.59 1.59 0 00-.58 1.22 1.49 1.49 0 001 1.42zm.67 11.26a1.61 1.61 0 00-.83 1.15 1.1 1.1 0 00.27.9 2 2 0 001.06.48.58.58 0 00.19.34.62.62 0 00.42.16 1.11 1.11 0 00.49-.13 1.24 1.24 0 00.66-1.06.63.63 0 00-.34-.55 2.47 2.47 0 00-.42-1.08l-.09-.09c-.27-.27-.65-.43-1.41-.12zm1.44 2.38h.11a.35.35 0 01-.11 0h.2v.13zm.43 12.68l-.08-.21-.19-.11a2.33 2.33 0 00-1.34-.32 1.44 1.44 0 00-1.15.84l-.1.25a2 2 0 00-.09.43 1.76 1.76 0 00.39 1.27 1.48 1.48 0 001.13.56h.29a1.45 1.45 0 00.86-.61l.21.05.24-.38.08-.19a1 1 0 00.07-.32 1.5 1.5 0 00-.19-.82c0-.15-.05-.29-.13-.44zm11.52.2c18 0 35.43 1.15 53.48 1.15"/></g><path class="cls-6" d="M131 176.1c10.86-.61 21.73-.94 32.6-1.09s21.74-.15 32.61-.07 21.74.33 32.61.71c5.43.17 10.86.41 16.29.65s10.86.55 16.29.93q-16.32.27-32.61.19l-16.3-.07-16.3-.15-32.59-.43c-10.9-.15-21.76-.41-32.6-.67z"/><g clip-path="url(#clip-path-2)"><rect class="cls-8" x="49.95" y="192.83" width="108.47" height="78.77" rx="4.04" ry="4.04"/><path class="cls-8" d="M36.94 266.05v4a4 4 0 004 4H167.4a4 4 0 004-4v-4z"/><path class="cls-1" d="M154.47 261a.86.86 0 01-.88.85h-98.8a.87.87 0 01-.88-.85v-63.38a.86.86 0 01.88-.84h98.8a.85.85 0 01.88.84z"/><path class="cls-3" d="M129.3 230.65a8.5 8.5 0 006.06-2.5 9.54 9.54 0 002.47-7.33 11.24 11.24 0 00-3.29-7c-3.3-3.24-9.79-2.85-13 .2-2.14 2-2.62 4.11-3 7-.36 2.68.71 4.69 2.53 6.61a9.18 9.18 0 007.33 3.05z"/><path class="cls-1" d="M133.7 215.9a33 33 0 00-7.66 6.63l-3-2.34-1.31 1.07 5.15 5.23a31.59 31.59 0 017.12-9.86z" id="Icon_Large_Green_Success-A_" data-name="Icon Large Green Success-A*"/><path class="cls-8" d="M70.36 213.34a116.58 116.58 0 0114-.49 83.67 83.67 0 0113.94 1.29c-4.68.07-9.31 0-14-.07s-9.3-.25-13.94-.73zm1.55 8.8c4.08-.48 8.14-.79 12.22-1a76.44 76.44 0 0112.29.21c-4.08.49-8.14.79-12.23 1a76.34 76.34 0 01-12.28-.21zm.3 9.51c2.92-.41 5.87-.63 8.81-.78s5.9-.18 8.84-.17 5.89.08 8.84.21l4.41.19c1.47.1 2.94.15 4.41.27-1.47.11-2.94.15-4.42.22l-4.41.09h-8.83l-8.86-.05zM62.7 214.2a1.14 1.14 0 00.23.1h.43a1.27 1.27 0 00.38-.07 1.25 1.25 0 00.56-.47 1.16 1.16 0 00.13-.41.69.69 0 00-.11-.43.8.8 0 00-.26-.23l.09-.46-.63-.16h-.16a1.36 1.36 0 00-.38.08 1 1 0 00-.5.44.77.77 0 00-.11.31v.23a1.83 1.83 0 00-.07.32.72.72 0 00.4.75zm.24 7.97h.14a.58.58 0 01.41 0 .52.52 0 00.49-.05.6.6 0 00.19-.52 1.19 1.19 0 01.09-.48v-.27a1.11 1.11 0 00-.84-.74 1 1 0 00-.87.22 1.1 1.1 0 00-.4.85 1 1 0 00.67 1zm.46 7.83a1.12 1.12 0 00-.57.8.73.73 0 00.18.62 1.38 1.38 0 00.74.34.47.47 0 00.13.24.46.46 0 00.29.11.82.82 0 00.34-.09.9.9 0 00.46-.74.44.44 0 00-.24-.38 1.76 1.76 0 00-.29-.75l-.06-.06c-.19-.23-.45-.37-.98-.09zm1 1.65h.08a.19.19 0 01-.08 0h.13a.14.14 0 010 .09zm.32 8.74v-.14l-.14-.08a1.6 1.6 0 00-.93-.22 1 1 0 00-.79.58l-.07.18a.83.83 0 00-.06.29 1.18 1.18 0 00.27.88 1 1 0 00.78.39h.2a1 1 0 00.6-.42h.14l.17-.26v-.14a.59.59 0 000-.22 1.09 1.09 0 00-.13-.57 3 3 0 00-.04-.27zm7.95.14a109.44 109.44 0 0115.33-.28c5.11.22 10.2.54 15.31 1.08a109.44 109.44 0 01-15.36.28c-5.08-.23-10.17-.55-15.28-1.08z"/></g><path d="M406.76 178.22a64.81 64.81 0 00-8.35-15.87 10.57 10.57 0 00-2.72-2.66l-.12-.06a9.82 9.82 0 00-2.41-1.13l-1.06-.5a83.07 83.07 0 00-9.64-3.24 130 130 0 00-45.67-4 361.78 361.78 0 00-37.65 5.52c-.63.09-1.24.21-1.86.36h-.13a20.85 20.85 0 00-10 5.78c-17.68 18.2-36.55 48.58-42.15 53.1-28.55-48-33.19-47.88-33.29-50.45L201 167s16.26 66.41 38.36 87.59a152.19 152.19 0 0046.45-23.07c-.05 12.13-.06 24.82 0 37.45 33.17 10.52 43.61 11.23 43.61 11.23h-55.14v.05l-1.86 18.38c14.66 4.19 83.61 20.79 131.7 1.74 8.72-3.45 14.64-11.83 15.85-21.4 2.47-19.61 2.64-52.09-13.21-100.75z" fill="#709eff"/><path d="M383.38 266l.35-.06s5-11-9.2-58.55a91.74 91.74 0 01-2.73-11.82c-1.9 9.46-5.32 32.53-6 78 5.76-2.34 11.29-4.93 17.58-7.57z" fill="#2d61f7" opacity=".37"/><path class="cls-3" d="M193.63 159.49l9.09 9.15 9.01-2.91-3.01-10.89-15.09 4.65zM358.71 126c-3.24 2.63-12.14 13.46-15.7 14.14a69.21 69.21 0 01-19 .34 180 180 0 01-4.01 21.05s3.65 4.8 12 11.92c3.07 2.63 9.33-2.83 18.31-10.29.47-14.02 6.56-32.65 8.4-37.16z"/><path class="cls-13" d="M381.65 90a9.78 9.78 0 01-1.27-12.52l.83-1.21a6.18 6.18 0 00.23-6.59 5.6 5.6 0 00-7.18-2.29L370.72 69a14.69 14.69 0 00-11.06-4.73l-3.65.07-1.43-1.81a7.5 7.5 0 00-5.71-2.87 7.81 7.81 0 00-7.44 5.18 3.64 3.64 0 01-4.93 2l-4.65-2.14a4 4 0 00-4.91 1.31 4.35 4.35 0 00-.21 4.88 2.17 2.17 0 01-.43 2.79 13.83 13.83 0 00-1.92 1.9l-.11.13a26.4 26.4 0 00-4.45 8.48l-2.4 7.64a102.7 102.7 0 00-4.79 34.8c.25 6.35 1.1 12.28 3.19 15l.06.08a2.21 2.21 0 001.21.79c2.49.6 11.25.58 20.38-.15 5.38-.54 9.87-1.44 15.75-8.58l6.94 2.2a4.41 4.41 0 004.26-.92 4.76 4.76 0 00-.9-7.8l-2.52-1.17a2.08 2.08 0 01-1.16-1.94l.87-1.5 7.48-1a6.43 6.43 0 005.11-4 6.7 6.7 0 00-1.11-6.89l-3.28-3.75c.31-.56.61-1.12.9-1.67l9.72-4.08A6.94 6.94 0 00381.65 90z"/><path class="cls-3" d="M360.15 95c-3.81-9.62-18.11-8.93-25-5.16a12.09 12.09 0 01-8.28 1.61 21.65 21.65 0 01-6-2.51c-.82.76-6 15-6.45 19.81-.52 5.46 5.24 4.68 8.6 3.78a4.8 4.8 0 014.28.86c27.29 22.23 36.7-8.8 32.85-18.39zm7.42 11.54s3.74-4.14 8.39-3.91c-3.37 6.42-7.31 18.68-14.63 18.27zM355 137.27c1.5-5.26 2.95-9.44 3.7-11.28-1.66 1.35-3.61 6.17-6.77 9.36z"/><circle class="cls-13" cx="329.43" cy="77.46" r="13.29"/><path class="cls-6" d="M171.85 114.21l23.05 46.39s15.46-3.31 21.39-8.39c-1.85-6.44-12.86-29.66-21.76-44.63-10 1.71-22 4.13-22 4.13z"/><path class="cls-6" d="M172.87 112.21L199 156l16.55-6s-4.6-13.45-21-42.42l-22 4.13z"/><path class="cls-1" d="M178 115l20.84 35.1 13.41-4.76s-13.78-26.41-18.41-33.8C181.31 114.23 178 115 178 115z"/><path class="cls-3" d="M203.78 105.64a32.87 32.87 0 012.45-3.72c.83-1.12 1.7-2.15 2.59-3.16s1.84-2 2.83-3a23.65 23.65 0 013.51-2.76 10.55 10.55 0 01-.91 4.57 14.13 14.13 0 01-2.45 3.83 13.81 13.81 0 01-3.53 2.87 9.45 9.45 0 01-4.49 1.37zm7.79 11.12a6.33 6.33 0 012.75-2 8.53 8.53 0 016.13 0 6.42 6.42 0 012.75 2 10.9 10.9 0 01-3 1.15 12.78 12.78 0 01-5.55 0 11.38 11.38 0 01-3.08-1.15zm-18.01-17.93a15.6 15.6 0 01-1.08-4 22.67 22.67 0 01-.19-3.84 23.48 23.48 0 01.41-3.79 18.34 18.34 0 011.15-4 9.31 9.31 0 012 3.82 14.49 14.49 0 01.45 4.07 15.26 15.26 0 01-.69 4 10.41 10.41 0 01-2.05 3.74zM174 92.15a4.77 4.77 0 012.54.52 4.84 4.84 0 011.65 1.42 4.67 4.67 0 01.87 2.09 3.36 3.36 0 01-.61 2.65 22.38 22.38 0 01-2.13-1.09 5.16 5.16 0 01-2.19-3.06 6.15 6.15 0 01-.13-2.53zm21 68.74l3.24-.46-6.3-10.79 3.34-5.71a2.86 2.86 0 00-.36-4l-4.64 5.54-1.87-2.63 5-7.54a3.62 3.62 0 00-.28-4.37l-7.48 8.31 2.32-9a4.87 4.87 0 00-1.86-5.16L181 137.75a2.32 2.32 0 00.89 2.87l.7.44a1.51 1.51 0 01.68 1.66l-.36 1.42 3.75 2.9a1.45 1.45 0 01.43 1.73l-.65 1.47zm13.67-27.32l.29-.75a4.62 4.62 0 00-2.11-5.66l-3.29-1.79a3.72 3.72 0 001.15 4.51l1.57 1.17z"/><rect class="cls-8" x="32.12" y="229.12" width="38.71" height="53.31" rx="1.99" ry="1.99"/><path class="cls-1" d="M36.23 232.68h30.48v45.08H36.23z"/><path class="cls-3" d="M52.32 262.7a6.19 6.19 0 004.41-1.82 6.91 6.91 0 001.79-5.33 8.18 8.18 0 00-2.39-5.09c-2.4-2.35-7.12-2.07-9.49.15-1.56 1.46-1.91 3-2.19 5.09a5.58 5.58 0 001.84 4.8 6.68 6.68 0 005.33 2.22z"/><path class="cls-1" d="M55.52 252a24.14 24.14 0 00-5.52 4.79l-2.17-1.7-1 .78 3.75 3.81a23.11 23.11 0 015.18-7.18z" id="Icon_Large_Green_Success-A_2" data-name="Icon Large Green Success-A*"/><path class="cls-13" d="M331.27 174.12l5.06 6.23-4.06 9.5-5.84 90.33h-16.87l21.71-106.06z"/><path class="cls-3" d="M280 111.06l1.33 33.86L234 143l-2-34.69a2.2 2.2 0 012.2-2.34l44.14 3.42a1.74 1.74 0 011.66 1.67z"/><path class="cls-1" d="M274.02 117.74l.33 5.91-33.97-2.82-.41-6.3 34.05 3.21zm0 11.54l.33 5.91-33.07-1.82-.42-6.3 33.16 2.21z"/></g></g></svg>