<svg xmlns="http://www.w3.org/2000/svg" viewBox="0 0 378.2 310.05"><defs><style>.cls-1{fill:#ebebff}.cls-2{fill:#fff}.cls-3{fill:#cec7ff}.cls-4{fill:#ffb419}.cls-5{fill:#8f87f9}.cls-7{fill:#cec6ff}</style></defs><g id="Layer_2" data-name="Layer 2"><g id="Layer_19" data-name="Layer 19"><path class="cls-1" d="M17 225c40.22 77.24 148.36 102 228.28 73.77C322.24 271.64 395 187.71 374.76 117.83 350.34 33.58 207.21 26.85 188.24 26c-39.52-1.86-125.06-5.88-167 55.68C-8.82 125.68-3.92 184.76 17 225z"/><path class="cls-2" d="M365 52.57a40.89 40.89 0 01-39.18 29.18A40.87 40.87 0 01285 40.87 40.87 40.87 0 01325.84 0a40.76 40.76 0 0111.33 1.59m0 0a40.9 40.9 0 0129.55 39.28 41 41 0 01-1.7 11.7"/><path class="cls-3" d="M366.46 36.29l.27 2.73a20.89 20.89 0 01.17 2.74l-.06 2.76c0 .92-.19 1.82-.27 2.74a40.42 40.42 0 01-1 5.44c-.19.91-.55 1.77-.82 2.65a21.46 21.46 0 01-1 2.61l-1.15 2.54c-.42.83-.92 1.62-1.38 2.43l-.7 1.21c-.26.39-.54.77-.8 1.15l-1.64 2.27a42.44 42.44 0 01-3.82 4.11c-.69.63-1.34 1.32-2.08 1.89L350 75.28a39.8 39.8 0 01-10 5.28 44.31 44.31 0 01-5.41 1.63c-.92.2-1.86.31-2.79.48a20.34 20.34 0 01-2.8.33l-2.83.16c-.94 0-1.88-.07-2.83-.1A40.41 40.41 0 01307 78.8l-1.27-.62c-.42-.23-.82-.49-1.22-.73l-2.4-1.45-2.26-1.7c-.38-.29-.77-.55-1.12-.87l-1.05-1a41 41 0 01-7.33-8.6l-1.44-2.43c-.48-.81-.83-1.7-1.25-2.54a45.59 45.59 0 01-2.05-5.27c-.26-.9-.46-1.82-.69-2.74l-.34-1.37c-.09-.46-.14-.93-.21-1.39l-.38-2.8c-.06-.93-.08-1.87-.11-2.81a40.49 40.49 0 0121-36.73 41.76 41.76 0 00-14.34 16 40.12 40.12 0 00-4.36 20.67c.06.88.1 1.77.18 2.65l.45 2.62c.08.43.13.87.23 1.31l.34 1.28c.24.85.44 1.71.7 2.55a42.61 42.61 0 002 4.89c.4.78.74 1.6 1.2 2.35l1.4 2.25a39 39 0 006.89 7.95l1 .89c.33.3.7.53 1.05.8l2.12 1.58 2.26 1.33c.38.22.75.47 1.14.67l1.19.57a38.77 38.77 0 009.94 3.43 38.31 38.31 0 005.23.64c.88 0 1.76.13 2.64.11l2.64-.11a17.75 17.75 0 002.63-.26c.87-.14 1.75-.23 2.61-.4a42.34 42.34 0 005.1-1.43 40.1 40.1 0 009.47-4.72l2.15-1.56c.72-.52 1.35-1.15 2-1.72a48 48 0 003.77-3.78l1.66-2.1c.27-.35.56-.69.82-1.06l.72-1.13c.47-.75 1-1.49 1.42-2.27l1.23-2.39a42.21 42.21 0 004.1-21.07z"/><path class="cls-4" d="M330.66 37.51l20.48-11.74s-2-15-9.84-8.27c-6.15 5.34-10.64 20.01-10.64 20.01z"/><path class="cls-5" d="M329.16 41.43a4 4 0 00-3.93-.45c-.79-2.15-1.92-5-3.23-8.13-2.72-6.5-5.14-11.68-5.42-11.56s1.7 5.48 4.42 12c1.32 3.16 2.57 6 3.54 8.08a4.07 4.07 0 106.26 4.16 4 4 0 00-.84-3.32c-.23-.37-.23-.37-.8-.78z"/><path class="cls-5" d="M327.08 43.35L360 27.68s-11.74 10.48-32.92 15.67z"/><path class="cls-2" d="M185.77 97.64v25.43l92.27 5S274.31 97 185.77 97.64z"/><path class="cls-3" d="M48.21 139.15s141.77-9.5 240.49 0M48.87 202.57s136.83 0 239.83-10m45.74-82.5c-4.44-1.57-12.24-2.08-15.79 1.64a8.58 8.58 0 00-.93 10.73c2.83 4 9.23 3.67 12.7 3.67 2.92 0 9.5 0 10.87-5.8 1.55-6.31-4.2-9.17-6.85-10.24z"/><path class="cls-2" d="M332.82 119.42a19.57 19.57 0 00-3.05-2.31c-.34-.22-.67-.46-1-.69a10.69 10.69 0 011.67-1.36c.64-.4 1-.52 1.27-1.24a.65.65 0 00-.81-.8 10.2 10.2 0 00-3.36 2.48 25.7 25.7 0 00-2.81-2 .5.5 0 00-.6.79 26 26 0 002.45 2.21c-1 1.07-2.31 2.26-2.48 3.7-.06.42.51.56.77.32.6-.56 1.05-1.26 1.63-1.84l1.24-1.26 1.63 1.25c.87.65 2.07 2.47 3.31 1.82a.72.72 0 00.14-1.07z"/><path class="cls-3" d="M336.44 159.77c-4.44-1.57-12.24-2.08-15.79 1.63a8.6 8.6 0 00-.93 10.74c2.83 4 9.23 3.67 12.7 3.67 2.92 0 9.5 0 10.87-5.81 1.55-6.26-4.2-9.16-6.85-10.23z"/><path class="cls-2" d="M334.82 169.12a19.57 19.57 0 00-3.05-2.31c-.34-.22-.67-.46-1-.7a11.22 11.22 0 011.67-1.35c.64-.4 1-.52 1.27-1.24a.66.66 0 00-.81-.81 10.2 10.2 0 00-3.36 2.48 25.61 25.61 0 00-2.81-1.95.5.5 0 00-.6.78 24.77 24.77 0 002.45 2.22c-1 1.06-2.31 2.26-2.48 3.7-.06.41.51.56.77.32.6-.56 1.05-1.26 1.63-1.84.42-.42.83-.85 1.24-1.27l1.63 1.25c.87.66 2.07 2.48 3.31 1.82a.71.71 0 00.14-1.1z"/><path class="cls-3" d="M52.79 137.31s1.64 77.86 3.92 100.77c69.65.46 125 4 125 4L168.22 98s6.55 92.75-39.68 104.48c-21.26 5.43-60.2-66.65-75.75-65.17z"/><path class="cls-2" d="M186.04 152.57h93.15v27.5l-92.67 2.89-.48-30.39z"/><path d="M245.53 111.72a51.06 51.06 0 016.08 8.21c1.59-2.92 3.88-5.47 5.56-8.21l-.09-.08a89 89 0 00-10.93.35m10.73 51.73a52.66 52.66 0 016.08 8.2c1.59-2.91 3.88-5.47 5.55-8.2l-.08-.08a89.18 89.18 0 00-10.94.35" fill="#709eff"/><path class="cls-2" d="M48.21 131.81s2 81.85 4.27 104.76c69.64.46 124.63 0 124.63 0l-8.89-108.75s-70.66-.72-120.01 3.99zm-.64-25.71v19.43l120.65-3.67V98s-47.47-3.07-120.65 8.1z"/><path class="cls-1" d="M44.35 165.43l125.7-2.79-127.5 10.41 1.8-7.62zm129.07 33.51l-124.67 4.23v4.58l124.67-4.4v-4.41z"/><path class="cls-3" d="M147.18 114.14a47.68 47.68 0 005.58-7.51c1.45 2.67 3.55 5 5.09 7.51l-.08.08a82.27 82.27 0 01-10-.32m151.81 11.39a8.43 8.43 0 006.06-2.5 9.48 9.48 0 002.46-7.33 11.18 11.18 0 00-3.28-7c-3.3-3.24-9.8-2.85-13.05.2-2.15 2-2.63 4.11-3 7-.35 2.68.72 4.69 2.53 6.61a9.21 9.21 0 007.33 3q.47.05.95.02z"/><path class="cls-2" d="M304 110.55a33.06 33.06 0 00-7.66 6.62l-3-2.33-1.34 1.06 5.15 5.24a31.84 31.84 0 017.13-9.87z" id="Icon_Large_Green_Success-A_" data-name="Icon Large Green Success-A*"/><path class="cls-3" d="M301.58 175a8.52 8.52 0 006.06-2.5 9.5 9.5 0 002.46-7.34 11.22 11.22 0 00-3.28-7c-3.3-3.23-9.8-2.84-13.05.21-2.15 2-2.63 4.1-3 7-.35 2.67.72 4.69 2.53 6.61a9.21 9.21 0 007.33 3.05z"/><path class="cls-2" d="M306 160.24a33 33 0 00-7.66 6.63l-3-2.34-1.34 1.06 5.15 5.24a31.7 31.7 0 017.15-9.83z" id="Icon_Large_Green_Success-A_2" data-name="Icon Large Green Success-A*"/><path class="cls-7" d="M81.46 146c5.2-.64 10.38-1.11 15.56-1.53 2.59-.24 5.18-.38 7.78-.58l7.79-.46 7.8-.29c2.61 0 5.21-.11 7.82-.06a132.19 132.19 0 0115.65.89c-5.2.65-10.38 1.12-15.56 1.53-2.59.25-5.18.38-7.78.59l-7.78.45-7.81.29c-2.61 0-5.21.11-7.82.06a134.35 134.35 0 01-15.65-.89zm-17.4 4.43l.34-.12a1.57 1.57 0 011.07 0 1.28 1.28 0 001.22-.12 1.54 1.54 0 00.49-1.33 3.77 3.77 0 01.23-1.23l.12-.34-.13-.29a2.84 2.84 0 00-2.14-1.88 2.65 2.65 0 00-2.23.56 2.8 2.8 0 00-1 2.17 2.63 2.63 0 001.71 2.5z"/><path class="cls-4" d="M63.45 184.42a4 4 0 00-2.09 2.92 2.69 2.69 0 00.64 2.26 5 5 0 002.69 1.23 1.49 1.49 0 00.5.87 1.54 1.54 0 001.06.4 3.11 3.11 0 001.23-.32 3.21 3.21 0 001.67-2.69 1.67 1.67 0 00-.85-1.41 6.59 6.59 0 00-1.06-2.73l-.24-.25c-.67-.65-1.64-1.18-3.55-.28zm3.66 6c.17 0 .29-.1.26-.1a.9.9 0 01-.28-.08l.5.07a.89.89 0 010 .33z"/><path class="cls-7" d="M71.34 220.73l-.13-.37-.35-.19a4.18 4.18 0 00-2.36-.58 2.54 2.54 0 00-2 1.48 3.58 3.58 0 00-.19.46 3.23 3.23 0 00-.16.76 3.13 3.13 0 00.7 2.24 2.6 2.6 0 002 1 2.34 2.34 0 002-1.11l.37.08.42-.66.15-.33a1.72 1.72 0 00.11-.58 2.6 2.6 0 00-.33-1.44c-.06-.24-.13-.49-.23-.76zm16.36-1.15a113.71 113.71 0 0112.66-1.49q6.35-.41 12.67-.41t12.67.41a111.3 111.3 0 0112.67 1.49 109.11 109.11 0 01-12.67 1.5q-6.33.42-12.67.4t-12.67-.41a109.17 109.17 0 01-12.66-1.49z"/><circle class="cls-4" cx="66.13" cy="188.02" r="4.36"/><path d="M81.9 194.3h-.07a.47.47 0 01-.4-.54c.62-4.07 1.26-8.28 3.29-11.78a.49.49 0 01.54-.23.48.48 0 01.35.46 22.15 22.15 0 00.72 4.31c.22.94.45 1.91.59 2.84.3-.46.65-.92 1-1.39a11.28 11.28 0 002.19-3.89.47.47 0 01.51-.37.49.49 0 01.43.47 14.76 14.76 0 001.66 4.47c.31-.42.71-.86 1.15-1.35a10.71 10.71 0 002.34-3.3.46.46 0 01.52-.32.47.47 0 01.41.46 9.27 9.27 0 00.79 3.09c.17.45.33.88.45 1.29a15.32 15.32 0 001.93-3.27.46.46 0 01.27-.24.48.48 0 01.37 0 2.28 2.28 0 011.25 2 25.27 25.27 0 012.9-3.37.5.5 0 01.52-.11.48.48 0 01.3.44 8.49 8.49 0 001.06 3.94 32 32 0 003.47-4.26.47.47 0 01.53-.2.49.49 0 01.35.45 6.35 6.35 0 00.77 2.66 9.46 9.46 0 01.51 1.28c4.8-3.06 10.82-2.43 16.65-1.82a65.78 65.78 0 007.32.48.5.5 0 01.48.47.48.48 0 01-.47.48 64.78 64.78 0 01-7.42-.49c-5.92-.61-12-1.25-16.63 2.08a.48.48 0 01-.49 0 .47.47 0 01-.26-.42 4.56 4.56 0 00-.56-1.7 11.19 11.19 0 01-.68-1.78 39 39 0 01-3.35 3.87.46.46 0 01-.41.14.48.48 0 01-.36-.25 11.4 11.4 0 01-1.38-3.87 14.21 14.21 0 00-2.51 3.24.46.46 0 01-.34.26.47.47 0 01-.42-.13 2.14 2.14 0 01-.53-1.34 1.79 1.79 0 00-.34-1 13.66 13.66 0 01-2.49 3.74.5.5 0 01-.52.11.48.48 0 01-.3-.44 7 7 0 00-.57-2 19.31 19.31 0 01-.63-1.86 20 20 0 01-1.83 2.27 9.76 9.76 0 00-1.47 1.87.49.49 0 01-.43.27.48.48 0 01-.43-.26 33.27 33.27 0 01-1.79-4 17.52 17.52 0 01-1.77 2.68 10.28 10.28 0 00-1.63 2.65.46.46 0 01-.52.32.48.48 0 01-.41-.46 20.63 20.63 0 00-.72-4.31c-.22-1-.44-1.92-.59-2.85a38.4 38.4 0 00-2.44 10 .47.47 0 01-.46.51z" fill="#502aff"/><path class="cls-4" d="M154.49 201.07l8.16-5.28-26.65-9.52 9.52 26.63 5.28-8.16 5.72 5.72a2.6 2.6 0 003.67-3.67z"/></g></g></svg>