<?xml version="1.0" encoding="utf-8"?>
<!-- Generator: Adobe Illustrator 22.1.0, SVG Export Plug-In . SVG Version: 6.00 Build 0)  -->
<svg version="1.1" id="Ebene_1" xmlns="http://www.w3.org/2000/svg" xmlns:xlink="http://www.w3.org/1999/xlink" x="0px" y="0px"
	 viewBox="0 0 680 382" style="enable-background:new 0 0 680 382;" xml:space="preserve">
<style type="text/css">
	.st0{fill-rule:evenodd;clip-rule:evenodd;fill:#CFF3FA;}
	.st1{fill:none;stroke:#0FB9DD;stroke-miterlimit:10;}
	.st2{fill:none;stroke:#0FB9DD;stroke-miterlimit:10;stroke-dasharray:10.0054,5.0027;}
	.st3{fill:none;stroke:#0FB9DD;stroke-miterlimit:10;stroke-dasharray:10.1918,5.0959;}
	.st4{fill-rule:evenodd;clip-rule:evenodd;fill:#FFFFFF;stroke:#7C8184;stroke-width:2;stroke-miterlimit:10;}
	.st5{fill-rule:evenodd;clip-rule:evenodd;fill:#EDEEEE;}
	
		.st6{fill-rule:evenodd;clip-rule:evenodd;fill:none;stroke:#7C8184;stroke-width:2;stroke-linecap:round;stroke-linejoin:round;stroke-miterlimit:10;}
	
		.st7{fill-rule:evenodd;clip-rule:evenodd;fill:#FFFFFF;stroke:#7C8184;stroke-width:2;stroke-linecap:round;stroke-linejoin:round;stroke-miterlimit:10;}
	.st8{fill-rule:evenodd;clip-rule:evenodd;fill:none;stroke:#7C8184;stroke-width:2;stroke-miterlimit:10;}
	.st9{fill:#0FB9DD;}
	.st10{fill-rule:evenodd;clip-rule:evenodd;fill:none;}
	.st11{fill-rule:evenodd;clip-rule:evenodd;fill:#FFFFFF;stroke:#7C8184;stroke-miterlimit:10;}
	.st12{fill-rule:evenodd;clip-rule:evenodd;fill:none;stroke:#7C8184;stroke-miterlimit:10;}
	
		.st13{fill-rule:evenodd;clip-rule:evenodd;fill:none;stroke:#7C8184;stroke-linecap:round;stroke-linejoin:round;stroke-miterlimit:10;}
	
		.st14{fill-rule:evenodd;clip-rule:evenodd;fill:#FFFFFF;stroke:#7C8184;stroke-linecap:round;stroke-linejoin:round;stroke-miterlimit:10;}
</style>
<path class="st0" d="M338.8,36.9c85,0,153.9,68.9,153.9,153.9c0,85-68.9,153.9-153.9,153.9s-153.9-68.9-153.9-153.9
	C184.9,105.8,253.8,36.9,338.8,36.9z"/>
<g>
	<g>
		<g>
			<path class="st1" d="M600.7,144.7c1.4,0.8,2.6,1.9,3.8,3.3"/>
			<path class="st2" d="M607.1,152.2c9.8,19.8,5.4,68.3-20.7,90.8c0,0-24.7,16.8-55.6,11.1c-2.4-0.8-24.6-8.8-19.8-31.4
				c0.2-0.5,5.2-23.2,27.9-15.7c1.2,0.6,26,5.8,22.1,35.8c-0.3,1.1-8.6,36.7-58.8,57.3c-7.6,2.1-69,28.5-168.6-9.8"/>
			<path class="st1" d="M331.3,289.4c-1.5-0.6-3.1-1.2-4.6-1.9"/>
		</g>
	</g>
</g>
<g>
	<g>
		<g>
			<path class="st1" d="M98.4,152.7c0,0-1,1.5-2.7,4.2"/>
			<path class="st3" d="M93.1,161.3c-17.4,30.9-62.5,135.6,115.8,149.6"/>
			<path class="st1" d="M211.4,311.1c1.6,0.1,3.3,0.2,5,0.3"/>
		</g>
	</g>
</g>
<path class="st4" d="M158.6,174.7l291.3-88.1c1.5-0.5,3.1,0.4,3.6,1.9L496.6,231c0.5,1.5-0.4,3.1-1.9,3.6l-291.3,88.1
	c-1.5,0.5-3.1-0.4-3.6-1.9l-43.1-142.5C156.2,176.8,157.1,175.2,158.6,174.7z"/>
<path class="st5" d="M157.9,177.4l292.6-88.5c1.5-0.5,4.8,4.6,5.3,6.1l-99,157.5c-4,5.1-10.1,13.2-27.3,8.3L159,186
	C158.5,184.4,156.3,177.8,157.9,177.4z"/>
<path class="st6" d="M494.6,234.5l-291.3,88.1c-1.5,0.5-3.1-0.4-3.6-1.9L307.5,183c4-5.1,10.1-13.2,27.3-8.3l161.8,56.1
	C497,232.4,496.2,234,494.6,234.5z"/>
<path class="st7" d="M158.7,174.6L450,86.5c1.5-0.5,3.1,0.4,3.6,1.9L345.9,226.1c-4,5.1-10.1,13.2-27.3,8.3l-161.8-56.1
	C156.3,176.7,157.2,175,158.7,174.6z"/>
<path class="st8" d="M158.6,174.7l291.3-88.1c1.5-0.5,3.1,0.4,3.6,1.9L496.6,231c0.5,1.5-0.4,3.1-1.9,3.6l-291.3,88.1
	c-1.5,0.5-3.1-0.4-3.6-1.9l-43.1-142.5C156.2,176.8,157.1,175.2,158.6,174.7z"/>
<g>
	<path class="st9" d="M344.6,165.7c1.2,3.5,1.6,6.9,1.5,10.2c-0.2,3.3-1,6.1-2.5,8.4c-1.5,2.3-3.5,3.9-6.2,4.7
		c-2,0.6-3.8,0.7-5.6,0.1c-1.8-0.6-3.2-1.7-4.3-3.3l-0.4,0.1c-0.6,2.3-1.6,4.3-3.1,5.8s-3.3,2.7-5.5,3.4c-4,1.3-7.6,1-10.8-0.8
		c-3.2-1.8-5.5-5-6.9-9.4c-1.7-5.1-1.5-9.7,0.6-13.9c2-4.2,5.6-7.1,10.8-8.8c1.9-0.6,4-1.1,6.4-1.5c2.4-0.4,4.6-0.6,6.5-0.6
		l4.8,17.5l0.3,0.9c1.3,4,3.2,5.5,5.8,4.7c2-0.6,3.1-2.4,3.4-5.3c0.3-2.9-0.1-6.3-1.4-10.2c-1.4-4.2-3.5-7.7-6.2-10.3
		c-2.8-2.6-6-4.3-9.8-5c-3.7-0.7-7.7-0.4-11.8,1c-5.3,1.7-9.5,4.3-12.7,7.7c-3.2,3.4-5.1,7.5-5.9,12.2c-0.7,4.7-0.2,9.7,1.5,15.1
		c2.3,7.2,6,12,11.1,14.6c5.1,2.6,11.2,2.7,18.4,0.4c5.1-1.7,8.2-3.1,13.1-6.8c0.9-0.7,2.6-0.7,3.7,0.8c0,0.2,0.3,0.4,0.4,0.8
		c0.3,0.7,0.9,2.3-0.1,3.1c-4.4,3.3-9.3,6.1-15,8c-9.1,3-17.1,2.8-23.8-0.4c-6.7-3.3-11.5-9.3-14.4-18.1c-2.1-6.4-2.6-12.6-1.5-18.6
		c1.1-5.9,3.7-11,7.7-15.3c4-4.3,9.1-7.4,15.3-9.4c5.4-1.7,10.5-2.2,15.4-1.3s9.2,3,12.8,6.3C340.1,156,342.8,160.3,344.6,165.7z
		 M308,182.8c1.9,5.8,5.1,7.9,9.6,6.4c4.8-1.6,6.2-6,4.3-13.4l-2.4-9c-1.7,0.1-3.4,0.4-5.2,1c-3.2,1-5.3,2.9-6.4,5.6
		C306.8,176.1,306.8,179.2,308,182.8z"/>
</g>
<path class="st10" d="M463.9,73l143.7,45.3c0.8,0.2,1.2,1,0.9,1.8l-82.5,26.2c-3.1,1-7.8,2.6-13.5-4.2l-50.5-68.1
	C462.4,73.1,463.2,72.7,463.9,73z"/>
<path class="st11" d="M463.9,73l143.7,45.3c0.8,0.2,1.2,1,0.9,1.8l-22.2,70.3c-0.2,0.8-1,1.2-1.8,0.9L440.9,146
	c-0.8-0.2-1.2-1-0.9-1.8l22.2-70.3C462.4,73.1,463.2,72.7,463.9,73z"/>
<path class="st12" d="M464.2,73L608,118.3c0.8,0.2,1.2,1,0.9,1.8l-22.2,70.3c-0.2,0.8-1,1.2-1.8,0.9L441.2,146
	c-0.8-0.2-1.2-1-0.9-1.8l22.2-70.3C462.7,73.1,463.5,72.7,464.2,73z"/>
<path class="st5" d="M463.7,73.1l143.9,46.8c0.8,0.2-0.2,2.2-0.5,3l-83.2,30.4c-3.1,1-7.8,2.6-13.5-4.2L462,77.2
	C462.2,76.4,463,72.9,463.7,73.1z"/>
<path class="st13" d="M584.7,191.2l-143.7-45.3c-0.8-0.2-1.2-1-0.9-1.8l82.5-26.2c3.1-1,7.8-2.6,13.5,4.2l50.5,68.1
	C586.2,191.1,585.4,191.5,584.7,191.2z"/>
<path class="st14" d="M463.9,73l143.7,45.3c0.8,0.2,1.2,1,0.9,1.8l-82.5,26.2c-3.1,1-7.8,2.6-13.5-4.2l-50.5-68.1
	C462.4,73.1,463.2,72.7,463.9,73z"/>
<g>
	<path class="st9" d="M542.5,121.2c-0.5,1.8-1.3,3.3-2.2,4.6c-1,1.3-2.1,2.2-3.3,2.7c-1.2,0.5-2.5,0.6-3.8,0.2
		c-1-0.3-1.7-0.8-2.3-1.5c-0.6-0.7-0.8-1.6-0.8-2.5l-0.2-0.1c-0.9,0.8-1.8,1.3-2.9,1.5s-2.1,0.2-3.2-0.2c-2-0.6-3.4-1.7-4.2-3.3
		c-0.8-1.6-0.8-3.6-0.2-5.8c0.7-2.5,2.1-4.4,4.1-5.5c2-1.1,4.3-1.3,6.9-0.6c0.9,0.3,2,0.7,3,1.2c1.1,0.5,2,1,2.8,1.6l-2.9,8.5
		l-0.1,0.4c-0.6,2-0.2,3.2,1.1,3.5c1,0.3,1.9-0.1,2.9-1.2s1.7-2.6,2.3-4.6c0.6-2.1,0.7-4.1,0.3-5.9c-0.4-1.9-1.3-3.4-2.6-4.8
		c-1.3-1.3-3-2.3-5.1-2.9c-2.6-0.8-5.1-0.9-7.3-0.4c-2.3,0.5-4.2,1.6-5.8,3.4c-1.6,1.7-2.8,3.9-3.6,6.6c-1,3.6-0.9,6.6,0.5,9.1
		c1.4,2.5,3.8,4.2,7.4,5.3c2.4,0.7,4.5,1,7.3,0.9c1.4-0.1,1.4,1.4,1.4,1.4s0.3,1.6-1.7,1.7c-2.5,0.1-5.1-0.2-7.7-1
		c-4.6-1.3-7.8-3.6-9.6-6.8c-1.8-3.2-2.1-7-0.8-11.4c0.9-3.2,2.5-5.9,4.6-8c2.1-2.1,4.6-3.5,7.4-4.1c2.8-0.6,5.8-0.5,8.9,0.4
		c2.7,0.8,4.9,2,6.7,3.8c1.8,1.7,2.9,3.8,3.5,6.2C543.4,116,543.3,118.5,542.5,121.2z M522.7,118c-0.8,2.9-0.1,4.6,2.1,5.3
		c2.4,0.7,4.2-0.7,5.5-4.3l1.5-4.4c-0.7-0.4-1.5-0.8-2.4-1c-1.6-0.5-3-0.3-4.2,0.5C524.1,114.9,523.3,116.2,522.7,118z"/>
</g>
<path class="st10" d="M69.2,143.1L149,54.3c0.4-0.5,1.1-0.5,1.6-0.1l-8.2,68.1c-0.3,2.5-0.7,6.5-7.5,8.3l-65.7,14.1
	C68.8,144.3,68.7,143.6,69.2,143.1z"/>
<path class="st11" d="M69.2,143.1L149,54.3c0.4-0.5,1.1-0.5,1.6-0.1l43.4,39.1c0.5,0.4,0.5,1.1,0.1,1.6l-79.9,88.8
	c-0.4,0.5-1.1,0.5-1.6,0.1l-43.4-39.1C68.8,144.3,68.7,143.6,69.2,143.1z"/>
<path class="st5" d="M70,143.9l80.4-88.5c0.4-0.5,1.1-0.1,1.6,0.7l-5.7,70.1c-0.3,1.8-0.7,5.8-7.5,7.6L71,146
	C70.6,145.6,69.5,144.4,70,143.9z"/>
<path class="st13" d="M194.1,94.9l-79.9,88.8c-0.4,0.5-1.1,0.5-1.6,0.1l8.2-68.1c0.3-2.5,0.7-6.5,7.5-8.3L194,93.2
	C194.5,93.7,194.5,94.4,194.1,94.9z"/>
<path class="st14" d="M69.2,143.1L149,54.3c0.4-0.5,1.1-0.5,1.6-0.1l-8.2,68.1c-0.3,2.5-0.7,6.5-7.5,8.3l-65.7,14.1
	C68.8,144.3,68.7,143.6,69.2,143.1z"/>
<path class="st12" d="M69.3,142.9l79.9-88.8c0.4-0.5,1.1-0.5,1.6-0.1l43.4,39.1c0.5,0.4,0.5,1.1,0.1,1.6l-79.9,88.8
	c-0.4,0.5-1.1,0.5-1.6,0.1l-43.4-39.1C68.9,144.1,68.8,143.3,69.3,142.9z"/>
<path class="st10" d="M158.6,174.7l291.3-88.1c1.5-0.5,3.1,0.4,3.6,1.9L345.8,226.2c-4,5.1-10.1,13.2-27.3,8.3l-161.8-56.1
	C156.2,176.8,157.1,175.2,158.6,174.7z"/>
<g>
	<path class="st9" d="M129.8,102.3c1.1,1,2,2,2.6,3.1s0.9,2.2,0.9,3.3c0,1.1-0.4,2-1.1,2.8c-0.5,0.6-1.1,1-1.9,1.2
		c-0.7,0.2-1.4,0.1-2.1-0.2l-0.1,0.1c0.3,0.9,0.3,1.8,0.1,2.6c-0.2,0.8-0.6,1.6-1.2,2.3c-1.1,1.3-2.3,1.9-3.8,1.9
		c-1.4,0-2.8-0.6-4.2-1.8c-1.6-1.4-2.5-3-2.6-4.8c-0.2-1.8,0.4-3.5,1.8-5.1c0.5-0.6,1.1-1.2,1.8-1.8c0.7-0.6,1.4-1.1,2.1-1.5
		l5.2,4.9l0.3,0.2c1.2,1.1,2.2,1.2,2.9,0.4c0.5-0.6,0.5-1.4,0.1-2.5c-0.5-1-1.3-2.1-2.5-3.1c-1.3-1.1-2.7-1.9-4.2-2.2
		c-1.5-0.3-2.9-0.2-4.3,0.3c-1.4,0.5-2.7,1.4-3.8,2.7c-1.4,1.6-2.3,3.4-2.7,5.2c-0.4,1.8-0.2,3.6,0.5,5.3c0.7,1.7,1.9,3.3,3.6,4.7
		c2.2,1.9,4.5,2.8,6.7,2.7c2.2-0.2,4.3-1.4,6.2-3.6c1.3-1.5,2.3-3,3.1-5.1c0.3-0.7,1.4-0.3,1.4-0.3s1.1,0.5,0.6,1.6
		c-0.8,1.9-1.8,3.7-3.3,5.3c-2.5,2.9-5.2,4.4-8.1,4.7c-2.9,0.3-5.8-0.8-8.5-3.2c-2-1.7-3.4-3.7-4.3-5.9c-0.8-2.2-1-4.5-0.5-6.7
		c0.5-2.3,1.6-4.3,3.2-6.3c1.4-1.7,3.1-2.9,4.9-3.6s3.7-0.9,5.6-0.5C126.3,99.9,128.1,100.8,129.8,102.3z M121,115.5
		c1.8,1.6,3.3,1.6,4.5,0.2c1.3-1.5,0.9-3.3-1.3-5.4l-2.6-2.5c-0.6,0.4-1.1,0.8-1.5,1.4c-0.9,1-1.2,2-1,3.2
		C119.2,113.4,119.8,114.5,121,115.5z"/>
</g>
</svg>
