<svg xmlns="http://www.w3.org/2000/svg" width="65" height="64.14" viewBox="0 0 65 64.14">
<g id="mark_2_" transform="translate(0.03)">
 <path id="Path_3" data-name="Path 3" d="M63.329,53.854a34.679,34.679,0,0,1-17.661,4.388c-18.909-.387-33.946-15.7-33.58-34.22A32.856,32.856,0,0,1,17.293,6.9,33.451,33.451,0,0,0-.024,35.378C-.39,53.9,14.647,69.232,33.557,69.619A34.459,34.459,0,0,0,63.329,53.854" transform="translate(0 -5.485)" fill="#051c25"></path>
 <path id="Path_4" data-name="Path 4" d="M97.11,0A27.87,27.87,0,0,0,83.6,3.465a27.424,27.424,0,0,0-4.121,13.88c-.308,15.315,12.178,28.067,27.8,28.375h0a31.356,31.356,0,0,0,14.064-3.342A28.158,28.158,0,0,0,97.11,0Z" transform="translate(-60.228)" fill="#0073ec"></path>
</g>
</svg>