<?xml version="1.0" encoding="utf-8"?>
<!-- Generator: Adobe Illustrator 16.0.4, SVG Export Plug-In . SVG Version: 6.00 Build 0)  -->
<!DOCTYPE svg PUBLIC "-//W3C//DTD SVG 1.1//EN" "http://www.w3.org/Graphics/SVG/1.1/DTD/svg11.dtd">
<svg version="1.1" id="圖層_1" focusable="false" xmlns="http://www.w3.org/2000/svg" xmlns:xlink="http://www.w3.org/1999/xlink"
	 x="0px" y="0px" width="1024px" height="768px" viewBox="0 0 1024 768" enable-background="new 0 0 1024 768" xml:space="preserve"
	>
<path fill="#3364E0" d="M824,48H200c-39.75,0-72,32.25-72,72v528c0,39.75,32.25,72,72,72h624c39.75,0,72-32.25,72-72V120
	C896,80.25,863.75,48,824,48z M698.6,483.75c7.2,7.2,7.2,18.9,0,26.1l-60.75,60.75c-7.197,7.2-18.897,7.2-26.1,0L512,469.95
	L412.25,570.6c-7.2,7.2-18.9,7.2-26.1,0l-60.75-60.75c-7.2-7.197-7.2-18.897,0-26.1L426.05,384L325.4,284.25
	c-7.2-7.2-7.2-18.9,0-26.1l60.75-60.75c7.2-7.2,18.9-7.2,26.1,0L512,298.05l99.75-100.65c7.2-7.2,18.9-7.2,26.1,0l60.75,60.75
	c7.2,7.2,7.2,18.9,0,26.1L597.95,384L698.6,483.75z"/>
</svg>
